<?xml version="1.0" encoding="utf-8"?>
<!-- Generator: Adobe Illustrator 19.0.0, SVG Export Plug-In . SVG Version: 6.00 Build 0)  -->
<svg version="1.1" xmlns="http://www.w3.org/2000/svg" xmlns:xlink="http://www.w3.org/1999/xlink" x="0px" y="0px"
	 viewBox="0 0 1400 980" style="enable-background:new 0 0 1400 980;" xml:space="preserve">
<style type="text/css">
	.st0{fill:#FEC00F;}
	.st1{fill:#BBE2DC;}
	.st2{fill:#743D25;}
	.st3{fill:#FFEFDF;}
	.st4{fill:#9B8579;}
</style>
<g id="_x31_">
	<g>
		<g>
			<g>
				<path class="st0" d="M270,313.1c-5.3,3.3-10.3,6.9-15.3,10.5c5.8-10.5,11.3-21.2,16.4-32.1c2.5-5.3-3.2-13.4-9-9
					c-11.9,8.9-23.1,18.5-33.9,28.5c12.5-19.7,25.4-39.1,38.6-58.3c3.7-5.4-3.6-12.4-8.9-8.9c-22,14.3-39.2,33.5-56.5,52.8
					c15-23.5,29.9-47,44.9-70.5c3.2-5.1-3.4-12.3-8.6-8.6c-28.4,20.9-53.9,44.6-76.7,71.1c16.4-26.2,38.4-49.3,55-75.4
					c4-6.3-4.5-11.4-9.6-7.4c-12.4,9.7-24.7,19.6-36.3,30.1c5.7-7.8,11.4-15.6,17-23.4c3.3-4.5-3.2-10.9-7.7-7.7
					c-23.1,16.5-43.5,35.3-60.4,58.2c-2.8,3.8,3.4,8.5,6.5,5c8.4-9.1,17-17.8,26-26.2c-4.8,6.5-9.6,13-14.4,19.5
					c-9.3,12.7-19.7,24-19.9,40.4c-0.1,5.8,8.1,8.1,10.9,3c12.6-23.1,29.9-42,49.1-59.2c-20.1,25.8-40,51.7-47.6,84.3
					c-1.6,7,7.3,10.5,11.3,4.8c21.3-31,46.1-58.8,74.3-83.3c-18.7,29.3-37.4,58.5-56.1,87.8c-4.2,6.5,4.7,12,10,7.7
					c22.7-18.4,40.5-41.9,60.8-62.7c-14.7,22.4-28.9,45-42.6,68c-3.8,6.4,5.1,13.3,10.3,7.9c15.4-16.2,31-32.3,47.7-47.1
					c-7.6,14-15.7,27.7-24.6,41c-4.2,6.3,5.3,13.5,10.4,8c8-8.4,16.4-16,25.4-23.1c-2.9,4.4-6.1,8.7-9.9,12.8
					c-5,5.5,1.4,14.7,8.1,10.5c2.6-1.6,5.2-3.3,7.8-4.9c2.2,2,5.6,2.6,8.4-0.2c4.4-4.6,4.5-4.4,7-10.3c1.8-4.3-0.8-9.5-4.9-10.1
					c2.6-5.1,4.8-10.4,6.6-16.1C281.6,315,274.9,310,270,313.1z"/>
			</g>
		</g>
		<g>
			<g>
				<path class="st0" d="M385.2,318.1c-0.1-2.6-1.6-4.5-3.5-5.4c0.9-2.3,1.8-4.6,2.6-7c1.9-5.3-4.8-9.9-9.3-7.1
					c-0.6,0.4-1.1,0.8-1.7,1.1c3.2-7.2,6.3-14.4,9.3-21.7c2.6-6.4-6.5-10.4-10.8-6.3c-1.6,1.5-3.1,3.1-4.6,4.6
					c4.4-9.1,9.3-18,14.3-26.9c3.8-6.6-4.5-11.8-9.9-7.6c-3.9,3.1-7.8,6.1-11.8,9.2c2.1-4.7,4.1-9.4,6.2-14
					c2.3-5.3-2.5-11.2-8.2-8.2c-3,1.6-5.8,3.4-8.5,5.2c2.5-5.3,3.9-10.9,0.3-14.8c-1.7-1.8-4.9-2.3-6.9-0.9
					c-5.4,3.6-10.8,7.2-16.1,10.9c-5.5,3.9-0.6,12.8,5.4,9.2c2-1.2,4.1-2.5,6.1-3.7c-4.1,6.5-9.6,15.5-4.1,21.3
					c2.1,2.2,6.2,2.3,8.3,0c1.3-1.5,2.7-2.8,4-4.2l-7,15.7c-2.2,4.9,2.9,12.6,8.4,8.4c3-2.3,5.9-4.6,8.9-6.8
					c-5.4,10.8-10.2,21.9-13.8,33.7c-1.9,6.1,6.4,11.1,10.8,6.3c0.9-1,1.8-1.9,2.7-2.9c-2.9,6.2-5.9,12.4-9,18.6
					c-3.1,6.2,5.3,13.8,10.2,7.8c1.5-1.8,3-3.6,4.5-5.4c-1.1,5.6,5.5,10.3,10.3,5.8c0.3-0.2,0.5-0.5,0.8-0.7
					c2.4,2.7,6.9,3.4,9.1-0.9C385.2,325.4,385.4,325,385.2,318.1z"/>
			</g>
		</g>
		<g>
			<g>
				<path class="st0" d="M684.4,370c0.8-2.7,1.2-5.7,1.4-9c0.2-4-4.2-7.1-7.8-6.1c2.7-5.4,5.2-11,7.4-16.8c2-5.3-4.8-9.8-9.2-7.1
					c-3.6,2.2-7.2,4.4-10.7,6.6c7.3-9.8,14.6-19.7,21.8-29.5c4.1-5.5-3.5-10.9-8.5-8.5c-6.6,3.2-12.8,6.9-18.7,11
					c7.6-11.6,15.2-23.2,22.8-34.7c3.7-5.7-3.3-10.6-8.4-8.4c-7,3-13.3,6.9-19,11.3c11.2-15.4,24.8-29.4,34.5-45.7
					c3.4-5.6-3.1-10.7-8.3-8.3c-4.3,1.9-8.4,4.1-12.5,6.4c6.2-8.4,12.4-16.7,18.6-25c3.4-4.6-3.2-10.7-7.7-7.7
					c-14.2,9.2-26.5,19.6-37.1,32.8c-3.6,4.5,2.3,10.8,6.5,6.5c0.5-0.5,1.1-1,1.6-1.5c-9.1,12.1-18.3,24.1-27.4,36.3
					c-3.6,4.7,2.3,9.5,6.8,8.8c10.2-1.6,14.3-12.5,20.5-19.8c3.6-4.3,7.7-8,12-11.5c-15.6,19.5-32.3,38.1-37.4,63.5
					c-1.4,6.8,7.3,10.7,11.1,4.7c5.8-9,12.1-17.1,19.4-24c-9.6,14.5-19.2,29.1-28.7,43.6c-4,6.1,4.7,12.1,9.7,7.5
					c6.5-5.9,13-11.6,19.7-16.9c-7,9.4-13.9,18.8-20.9,28.2c-3.8,5.2,3.5,11.7,8.5,8.5l20.7-12.7c-3.8,7-8.1,13.8-13.2,20.4
					c-3.8,5,3.6,12,8.6,8.6c2-1.4,4-2.7,6-4.1c-1.6,4.5,2.1,8.9,7.4,8.2c0.4-0.1,0.7-0.1,1.1-0.2c-2.5,5.8,5,12.6,9.7,7.1
					c4.5-5.3,5.8-9.3,5.7-16.4C690.4,372.3,687.6,370.2,684.4,370z"/>
			</g>
		</g>
		<g>
			<g>
				<path class="st0" d="M853.4,256.6c-10.7,3.2-20,8.3-28.7,14.4c2.9-4.5,5.7-9,8.4-13.5c2.2-3.7,0-7.9-3.8-9.2
					c-6.7-2.4-13.9,0.6-20.7,5.4l7.5-9.9c2.5-3.3-0.2-8.2-3.8-9.2c-13.2-3.7-24.6,7.6-34.2,15.4c-2.9,2.3-5.6,4.8-8.3,7.2
					c9.7-12.2,20-23.9,31-35.1c4.2-4.3,0-12.4-6-10.4c-10.7,3.6-20.3,8.7-29.2,14.7c7-9.9,14-19.9,21-29.9c2.9-4.1-1.9-10-6.5-8.4
					c-13,4.4-24.2,10.5-34.1,19.4c-1.2,0.2-2.3,0.8-3.1,2c-1,1.3-1.9,2.7-2.9,4c-3.5,4.8,3.8,9.4,7.7,6c5.5-4.7,11.1-8.7,17-12.2
					c-12.6,17.4-25.1,34.7-37.6,52.2c-4.2,5.8,4.8,12.2,9.7,7.5c10.1-9.9,20.4-19.5,31.7-27.6c-15.5,18.3-29.6,37.6-42.3,58.1
					c-2.3,3.7,0.1,7.7,3.7,9.2c11.1,4.5,17.7-8.1,23.6-15.3c7.1-8.6,15.1-16.4,23.3-23.9c3.1-2.8,9.9-9.8,16.9-14.9
					c-19.6,25.7-39.3,51.4-58.9,77.2c-4.4,5.7,5.3,13.1,10,7.7c12.1-14.1,24.3-28.1,37.1-41.5c4.9-5.1,19.6-22,31.4-30.6
					c-10.1,15.2-21.4,29.5-34.1,42.9c-14.2,15.1-31,27.2-40.1,46.3c-3,6.2,5,13.6,10.1,7.8c14.4-16.4,29.3-32.2,44.9-47.4
					c10.4-10.1,21-21,32.9-29.9c-24.6,24.9-52.3,46.9-69.4,78.3c-1.8,3.4-0.8,6.3,1.3,8c-3.6,3.8-7.2,7.6-10.7,11.5
					c-5.9,6.4,3.4,15.7,9.5,9.5c12.4-12.4,24.9-24.9,37.3-37.3c1.9-1.7,3.8-3.3,5.7-4.9c-9.6,11.3-18.7,23.1-26.6,35.8
					c-4.9,7.8,6.8,14,12,7c7-9.4,14.1-18.5,21.9-27c2.3,1.3,5.4,1.4,8.1-0.8c2.2-1.8,4.5-3.6,6.7-5.4c0.8,0,1.6-0.1,2.5-0.5
					c8.8-3.5,13.2-7.9,16.7-16.7c0.5-1.3,0.6-2.4,0.4-3.4c0.9-0.9,1.9-1.8,2.8-2.8c3.9-3.9,1.7-9.2-2.2-11c2.1-2.1,4.1-4.1,6.2-6.2
					c5.4-5.5-0.3-12.5-6.5-11.5c3.9-3.9,7.8-7.8,11.7-11.7c4.3-4.3,0.9-11-4.7-11.4c-1.5-0.1-3.1,0-4.6,0.1
					c5.5-5.9,10.9-12,15.8-18.5C864.4,261.5,858.5,255.1,853.4,256.6z"/>
			</g>
		</g>
		<g>
			<g>
				<path class="st0" d="M1210.5,257.8c4.7-4.4,6.9-9.7,3.6-17.5c-1.1-2.6-5.4-4.3-8-3.2c-2.3,0.9-4.5,1.9-6.8,2.8
					c4.5-2.6,8.5-5.8,11.8-10.3c3.1-4.2-1.1-10.7-6-10.4c-8,0.4-15.6,1.6-23.1,3.4c7-3.8,14.1-7.7,21.1-11.5c3.7-2,4.5-7.7,1.4-10.6
					c-8.9-8.2-21.5-6.9-34-2.9c8.5-6.1,14.7-13.5,9.6-21.6c-1.6-2.4-4.3-3.6-7.1-2.9c-10.9,2.7-21.6,6-32.1,9.7
					c6.5-4.6,12.8-9.6,18.7-15.2c4.2-4,0.7-10.1-4.3-10.5c-10.5-0.9-21.6,3.2-32.2,8.4c2.1-2.1,4.2-4.2,6.2-6.4
					c3.5-3.9,0.2-12.1-5.7-9.8c-20.4,8.2-38.7,18.9-55.7,32.8c-3.1,2.5-1.2,7,1.8,8.5c-10.4,7.3-20.4,15-29.1,24.5
					c-4.4,4.9,1.5,13.8,7.4,9.6c15.1-11.1,30.8-21.2,47.1-30.4c9.9-5.6,23.6-14.4,37-19.9c-27.2,19.3-58.5,32.7-81.6,57.6
					c-4.5,4.9,1.7,14.1,7.5,9.7c28-21.1,58.6-37.2,91.5-48.4c-30.4,18.1-85.5,52.8-92.1,58.4c-5.6,4.8,1.6,13.6,7.7,10
					c17.9-10.6,36.3-20.1,55.1-28.8c12.1-5.5,24.4-10.4,36.8-15c3.8-1.4,11.7-5.1,19.5-7.6c-30.9,16.8-61.8,33.6-92.7,50.4
					c-6.8,3.7-2.2,14.7,5.3,12.5c19.4-5.7,37.7-15,56.3-23.3c-10.6,6.6-20.1,14.9-27.9,24.8c-3.7,4.7-0.5,14.8,6.8,11.7l47.3-19.8
					c-15.3,9.1-31.1,18.3-33.9,19.9c-6.6,4-2.2,16.1,5.5,13c4.3-1.8,8.7-3.5,13-5.3c-0.2,4.3,3.8,8.9,9,7.7
					c4.3-0.9,8.3-2.1,12.3-3.4c-0.2,4.2,3.1,8.7,8.4,7.1c5.9-1.8,10.4-3.9,15.5-7.5c4.3-3,3.8-8.2,1.2-11.1c0.1-0.2,0.3-0.3,0.4-0.5
					c1.3-1.8,1.5-3.6,1-5.3c5.8-4.2,10.5-9,12.8-14.7C1218.3,262.9,1214.6,258.3,1210.5,257.8z"/>
			</g>
		</g>
		<g>
			<g>
				<path class="st0" d="M1160.5,356.5c0.6-1.7,0.3-3.8-0.6-5.3c-3.4-5.5-8-6.1-14-4.2c-0.4,0.1-0.8,0.3-1.2,0.5
					c-0.8-3-3.4-5.3-7.3-3.9c-7,2.6-14,5.1-21,7.7c0,0,0,0,0,0c2.3-2.6,2.5-6.3,0-8.9c-5.5-5.8-15-3.6-24.7,0.4c0.6-4.1-2.7-8-7.6-7
					c-3.5,0.7-7,1.6-10.4,2.5c1.1-3.7-1.3-8.1-5.7-8c-1.7,0.1-3.4,0.2-5.1,0.3c3.6-4.2-0.6-10.5-6-9.3c-5.1,1.2-10.2,1.9-15.3,2.3
					c0.6-0.6,1.1-1.2,1.7-1.8c4.5-4.9-2.5-12-7.3-7.3c-4,3.8-7.1,7.7-10.1,12.3c-2.4,3.7,0.8,8.3,4.8,8.4c2.9,0.1,5.7,0.1,8.4,0
					c-0.5,0.3-0.9,0.7-1.4,1c-5.4,3.6-2.1,13.2,4.6,11c2.9-1,5.8-1.7,8.6-2.4c-1.2,1.2-2.4,2.4-3.5,3.5c-5.3,5.3,1.4,12.4,7.4,9.7
					c2.1-0.9,4.1-1.7,6.1-2.5c-3.5,3.6-2,11.6,4.1,10.8c3.1-0.4,16.2-5.2,27-9.2c-2.7,2.2-5.4,4.3-8.3,6.3
					c-5.5,3.8-2.2,14.1,4.9,11.5c6.8-2.5,13.6-5,20.4-7.5c-3.2,2.1-6.3,4.1-9.3,5.9c-7,4.2-0.6,15.2,6.4,11
					c4.7-2.8,9.5-5.6,14.2-8.3c-0.7,4.5,5.2,9,10.1,6.8c5.1-2.3,10.2-4.6,15.3-6.9c1.3,1.1,3,1.7,4.8,1.2c6.8-2,10.1-5,14-11
					C1167.9,361.4,1164.6,357.3,1160.5,356.5z"/>
			</g>
		</g>
		<g>
			<g>
				<path class="st0" d="M1136.5,643.8c-8-5.5-16.9-0.5-25.3,2.3c-3.9,1.3-7.7,2.7-11.5,4.2c11.3-7.8,21.3-17.1,23.5-29.3
					c0.7-4.1-1.8-8.5-6.3-8.3c-20.6,0.6-39.3,10.1-57.1,20.2c8.9-8.1,17.6-16.4,26.1-25c4.4-4.5,0-12.1-6.1-10.5
					c-12.2,3.3-23.7,8.3-34.6,14.3c3.4-3.2,6.8-6.5,10.2-9.7c2.9-2.8,1.9-7.4-1.2-9.4c-10.6-6.9-23.3,3.8-32.3,9.2
					c-3.5,2.1-6.9,4.3-10.3,6.6c-1.3-2-3.8-3.1-6.4-1.4c-14.5,9.8-25.8,21.7-34.7,36.8c-3.2,5.5,4.3,11.2,8.8,6.8
					c10.3-10.2,21-19.5,32.6-28c2.4-1.8,9.9-7.6,17.6-12.6c-17.6,16.6-35.1,33.3-52.7,49.9c-5,4.7,1.8,13.9,7.5,9.7
					c22.5-16.7,44.8-35.6,69.9-48.6c-25.4,23.4-52.5,44.9-79.6,66.4c-5.7,4.5,1.8,14.1,7.7,10c19.7-13.3,39.4-26.6,59.7-39
					c19-11.6,41.3-26.8,64-31.2c-6.7,8.6-19.1,14.4-27.2,20l-32,21.9c-21.4,14.6-42.7,29.2-64.1,43.8c-7,4.8-0.7,16,6.7,11.4
					c20.4-12.6,40.8-25,61.8-36.5c10.5-5.7,21.2-10.9,32-16c3.4-1.6,17.6-9,29.6-13.5c-14.2,10.1-30.9,17.6-45.3,26.4
					c-24,14.6-47,30.7-69.3,47.6c-6.8,5.2-0.9,16.5,6.9,11.8c26.9-16,54.2-34.3,84-44.9c-25,15.9-50.5,30.9-71.4,52.3
					c-4.7,4.8,0,14.4,6.9,11.8c1.1-0.4,2.3-0.9,3.4-1.4c-4.5,5.1,1.9,13.8,9.2,10.6c2.8-1.2,5.6-2.5,8.4-3.7c-5.1,2.9-10,6-14.6,9.5
					c-5.6,4.3,0.5,14.3,6.9,11.8l14.2-5.4c0.3,4.7,5.2,9.1,10.5,6c8.9-5.4,15.6-11.7,21.9-19.9c2-2.6,1.2-5.9-0.9-8.2
					c9.2-6,17.6-13,24.1-22.8c2.6-3.9,0.7-7.6-2.5-9.3c7.5-5.6,14.8-11.5,21.8-17.8c5.5-5-0.3-13.4-6.9-11.8
					c-5.2,1.2-10.2,2.9-15.1,4.7c7.6-5,15.2-10.1,22.4-15.7c4.8-3.7,4.3-14-3.5-13.1c-7.5,0.8-14.8,2.3-21.9,4.1
					c13.2-7.4,26-15.3,35.9-26.5C1140.9,651.1,1140.3,646.4,1136.5,643.8z"/>
			</g>
		</g>
		<g>
			<g>
				<path class="st0" d="M1233,701.5c-12.5-2.5-22.3,2.3-32.4,6.8c6.3-6.8,12.3-13.8,18.1-21c3.3-4.1,0.4-11.1-5.5-9.4
					c-3.2,1-6.4,1.8-9.7,2.5c1.9-2.2,3.8-4.4,5.8-6.6c2.9-3.3,0.2-9.6-4.6-7.9c-6.7,2.3-11.2,4.8-16.2,9.8c-1.8,1.7-1.1,4.1,0.5,5.3
					c-1.2,1.3-2.5,2.6-3.7,3.9c-2.9,3.1-1.2,9.8,3.8,9.2c3.4-0.4,6.8-0.9,10.2-1.5c-7.5,8.3-15.3,16.4-23.4,24.2
					c-3.5,3.3-1.1,10.7,4.2,10.1c10.5-1.2,21.2-7.8,31.8-11.5c-16.8,12.9-34.4,24.5-52.8,35.1c-6,3.5-2,13.8,4.8,11.4
					c10.1-3.6,20.3-7.2,30.4-10.7l-36.3,28.5c-4.3,3.4-1.6,8.5,2.4,10.2c-5.6,3.2-11.3,6.3-17.1,9.3c-6.5,3.3-1.9,14.4,5,11.8
					l15.4-5.6c-0.6,0.3-1.1,0.6-1.5,0.8c-5.6,3.2-3.2,12.3,3.3,12.2c5.7-0.1,11-0.6,16.2-1.6c1.2,3.8,6.7,6.6,10.9,3.3
					c4.3-3.3,6.8-6.5,9.3-11.2c1.3-2.6,0.6-6.1-1.3-8.2c6.4-4.4,11.5-9.7,13.4-16.3c1.2-4.4-3.1-9.4-7.7-8.1c4.3-3,8.6-6,12.8-9.1
					c5.5-4.1,2.5-14-5-11.7c-2.7,0.8-5.4,1.7-8.1,2.6c8.9-7,17.9-14.1,26.8-21.1c5-3.9-0.4-12.6-6.2-10.6
					c-5.9,2.1-11.8,4.2-17.7,6.3c9.1-6.7,18.1-13.6,26.7-20.9C1239,708.8,1237.3,702.4,1233,701.5z"/>
			</g>
		</g>
		<g>
			<g>
				<path class="st0" d="M837.5,702.9c-8.4,2.9-16.8,5.8-25.2,8.5c10-4.6,19.5-9.7,28.3-15.8c3.3-2.2,5.1-7.9,1.4-10.8
					c-4-3.1-8.7-4.5-13.7-4.8c5.2-3.9,9.6-8.4,12.3-13.8c2.1-4.1-0.3-11-5.9-10.3c-26.6,3.1-52.9,10.2-78.8,18.6
					c24.5-12.7,49.1-25.5,73.6-38.2c3.1-1.6,4.4-6.3,2.4-9.3c-3.7-5.5-8.8-7.4-15.5-5.6c-6.8,1.8-13.5,3.8-20.2,5.9
					c8.6-4.5,16.8-9.3,23.2-17c3.1-3.8,1.6-11.1-4.4-10.6c-10.8,0.9-21.8,3-32.7,6c5.3-3.3,10.3-6.8,14.9-10.7
					c5.1-4.4,7.2-8,5.6-14.6c-0.8-3.2-4.5-5.3-7.6-4.3c-10,3.1-19.8,6.9-29.5,11.2c2.6-2.4,5.2-4.8,7.8-7.4c4.8-4.8-1.2-11.6-6.9-9
					c-30.9,14.4-60,31.1-88,50.6c-4.5,3.2-0.4,10.6,4.4,7.5c15.6-10.1,31.6-19.5,48-28.2c-9.1,6.8-18.4,13.4-27.9,19.6
					c-15.8,9.5-31.3,19.4-46.4,28.7c-6.6,4.1-0.6,14.4,6.1,10.4c15.1-9,30.1-18.1,44.9-27.7c21.7-13.1,44.1-25.5,67-35.1
					c-16.6,10.7-40.6,24.2-44.5,26.7c-9.6,6.2-19.2,12.4-28.9,18.5c-13.2,7.8-25.7,16-37.4,24c-6.5,4.5-0.5,15,6.2,10.7
					c13.4-8.6,26.8-17.2,40.2-25.8c25.6-15.1,53.4-28.4,81.3-34.9c-5.9,3.1-12,5.9-17.7,8.9c-14.9,7.7-29.7,15.6-44.5,23.7
					c-27.3,15-53.8,31.3-79,49.6c-6.5,4.7-0.4,15.5,6.4,10.9c23.2-15.9,47.5-29.7,72.8-41.8c14.2-6.8,28.9-12.6,43.7-18.1
					c1-0.4,4.2-1.6,8.4-3.1c-39.3,20.4-78.5,40.8-117.7,61.2c-6.7,3.5-2,14.8,5.2,12.3c45.8-15.8,93.1-36.2,141.2-45.9
					c-3.1,1.4-6.2,2.6-8.9,3.9c-11.7,5.5-23.4,11.1-35.1,16.6c-23.4,11.1-46.9,22.1-70.3,33.2c-8.1,3.8-1,15.3,6.9,11.8
					c3.1-1.4,6.2-2.6,9.3-4c-1.8,4.2,0.1,9.9,6,9.6c15.7-0.6,31.1-2.7,46.3-5.9c-2.1,0.9-4.1,1.7-6.2,2.6c-8,3.4-5,16.4,3.7,13.5
					c2.3-0.8,9.3-3.1,18-6.1c-4.9,4.4,0,13,6.8,11.6c5-1,9.9-2.2,14.7-3.5c-1.3,4.5,2,9.7,7.9,8.3c6.4-1.5,11.7-3.5,17.6-6.4
					c3.7-1.9,4-5.5,2.6-8.3c2-1.5,3.9-3,5.9-4.4c3.8-2.9,3.7-8.8,0.9-11.5c0.1,0,0.2-0.1,0.2-0.1c3.7-1.9,4-6.2,2.5-9.6
					c-0.4-0.8-0.8-1.6-1.2-2.2c4-2.6,7.1-6.1,8.2-11.4C847.1,706.7,842.8,701.1,837.5,702.9z M769.6,712.4c8.7-3.2,17.5-6.1,26.4-9
					c-15,6.2-30.7,11.4-46.2,16.4C756.4,717.3,763,714.8,769.6,712.4z"/>
			</g>
		</g>
		<g>
			<g>
				<path class="st0" d="M744.2,827c-3.2,0.5-6.5,1.1-9.7,1.8c0.6-0.5,1.2-1,1.8-1.5c4.7-4.1-0.3-11.9-6-10.3
					c-3.4,1-6.9,1.9-10.4,2.8c0.8-1,1.7-1.9,2.5-3c3.4-4.6-2.1-10.2-6.9-9c-3.6,0.9-7.1,1.8-10.7,2.7c0.5-0.6,1-1.3,1.5-1.9
					c1.9-2.7,0.5-6.8-2.2-8.3c-7.6-4.1-12.8-2.7-21.2-1l-3.3,0.7c1.6-1.5,3.2-3.1,4.6-5c2.9-3.8-1.1-9-5.2-9
					c-6.8-0.1-13.6,0.1-20.2,0.7c0.9-0.5,1.8-0.9,2.7-1.4c2.6-1.3,3.9-5.5,2.1-7.9c-5.4-7.2-14.8-7.8-24.7-6.3
					c1.3-1.1,2.6-2.2,3.9-3.3c4.2-3.8-0.2-10.5-5.3-9.2c-5.7,1.5-11.5,3-17.2,4.4c1.3-1.3,2.6-2.5,3.8-3.8c4.1-4.2-2-10.1-6.3-6.3
					c-6.1,5.2-11.9,10.7-17.7,16.1c-3.8,3.5,0.2,9.4,4.8,8.3c3.3-0.8,6.6-1.5,9.9-2.2c-1.8,1.1-3.6,2.3-5.4,3.4
					c-5.8,3.4-1.8,11.5,4.4,10.4c3.3-0.6,16.7-4.2,27.1-5.9c-7.9,4-15.9,8.1-23.8,12.1c-6,3.1-1.8,12.6,4.5,10.8
					c12.9-3.8,25.7-6.2,38.8-7.2c-7.6,3.3-16,5.5-22.4,10.2c-5.5,4.1-2.3,12.5,4.7,11.1c7.3-1.5,14.5-2.9,21.8-4.4
					c4.9-1,14.7-4.3,22.9-5.4c-9.9,6.2-24,9.4-33.4,13.2c-7.1,2.9-4.6,13.7,3.2,11.8c6.3-1.6,12.6-3.1,18.9-4.7
					c-5.3,3.3-2,12.4,5,11c7.1-1.4,14.1-2.9,21.2-4.5c-1,0.6-2,1.2-3,1.8c-6,3.4-2,13.1,4.7,11.2c14.7-4.3,29.7-8,43.8-14.2
					C753.2,833.3,749,826.3,744.2,827z"/>
			</g>
		</g>
		<g>
			<g>
				<path class="st0" d="M243.4,672c-4.9,3-9.8,6-14.7,9.1c4.7-6.3,9.5-12.4,14.4-18.6c3.1-3.9-1.1-11.2-5.8-7.6
					c-7.4,5.6-17.1,11-23.2,18.2c-1.2,1.4-1.4,3-0.6,4.6c0.2,0.4,0.4,0.8,0.6,1.2c0.5,0.9,1.2,1.5,1.9,1.7
					c-4,5.3-7.8,10.7-11.6,16.2c-3.1,4.5,2.9,10,7.3,7.3c4.7-2.9,9.4-5.8,14.1-8.6c-9.1,9.5-19.8,18.3-27.9,26.6
					c-3,3.1-1.5,7.9,2.4,9.2c5.8,1.9,12.2-0.2,18.4-3.6c-5.2,7.4-10,14.8-12.1,23.4c-0.9,3.5,1.7,6.5,4.7,7.1c-2.5,4,0.2,11.2,5.9,9
					c2-0.8,3.9-1.5,5.9-2.3c-0.8,1.6-1.5,3.2-2.3,4.8c-2.8,3.1-1.8,8.3,2.5,9.4c3.1,0.8,4.8,1.2,6.5,1.1c1.8,2.7,6.3,3.3,8.4-0.1
					c2.2-3.5,2.5-5,1-8.9c-0.7-1.7-1.8-3-3.3-3.6c1.6-3.3,2.6-7,3.2-11.3c0.4-3.1-1.5-6.9-4.6-7.2c6.5-7.6,12.3-15.8,13.4-24.6
					c0.7-5.4-6.5-6.9-9.7-4c-0.5,0.5-1,1-1.6,1.4c2.6-3.9,5.1-7.7,6.9-11.6c2.2-4.7-2.5-10.9-7.6-7.6c-1.2,0.7-3,2.1-5.2,3.6
					c8.3-8.3,15.9-17.1,20.2-26.8C252.8,674.8,248.4,668.9,243.4,672z"/>
			</g>
		</g>
		<g>
			<g>
				<path class="st0" d="M389.4,745.1c-3.8,2.5-7.7,5-11.5,7.6c6.5-7.1,13.1-14.2,19.6-21.2c5.4-5.8-1.3-13.5-8.1-10.4
					c-3.2,1.4-6.3,2.9-9.4,4.5c6.2-6.5,12.2-13.1,18.5-19.5c4.7-4.8,0-12.9-6.5-11.2c-11.1,3-21.3,7.2-31,12.9
					c6.6-7,13.2-14,20-20.8c4.5-4.5,0-13.4-6.5-11.2c-11,3.9-20.4,10.1-29.3,17c9.9-10.3,19.5-20.7,26.7-33.2
					c1.9-3.3,0.3-8.7-3.8-9.4c-10.3-1.7-20,3.8-29.5,11.3c3.1-4.6,6.1-9.4,9-14.3c2.8-4.9-3.1-11.6-8.1-8.1
					c-9.2,6.5-18.5,12.9-27.7,19.4c6.5-8.4,15-16.7,19-21.9c3.7-4.7-0.8-10.7-6.3-8.2c-3.2,1.5-14.1,8.4-19.9,9.8
					c-0.1-0.1-0.2-0.2-0.3-0.2c-0.3-0.1-0.6-0.3-0.9-0.4c-1.9-0.9-4.7-0.7-5.7,1.5c-0.2,0.4-0.4,0.8-0.6,1.2
					c-0.9,1.9-0.7,4.8,1.5,5.8c2.7,1.2,5.7,1.2,8.9,0.5c-8,8.9-15.3,18.7-15.8,28.8c-0.2,4.1,5,7.3,8.5,4.9c6.3-4.3,12.6-8.7,19-13
					c-7.4,9.2-15.4,17.9-24.2,26c-4.6,4.2,0.2,12.1,6,10.4c9.6-2.8,17.9-7.1,25.7-13.4c4.8-3.8,13.8-13.8,22.5-20.8
					c-15.4,18.7-34.9,34-47.7,54.9c-3.7,6,3.4,11.6,8.9,8.9c8.3-3.9,15.6-9.2,22.8-14.8c-7.9,9.1-15.6,18.3-23.1,27.7
					c-3.2,4.1-1.8,11.9,4.7,11.4c12.9-0.9,20-8.3,28.1-17.8c7-8.2,15.1-14.9,24-20.2c-14.7,15.6-29.2,31.3-43.3,47.4
					c-5.6,6.4,3.4,15.7,9.4,9.4c7.6-7.9,15.7-14.9,24.2-21.3c-8.7,9.4-17.4,18.9-26.2,28.3c-5,5.4,1.5,14.7,8,10.4
					c7.7-5.1,15.4-10.1,23.1-15.2c0.6,3.7,4.5,7.2,8.4,5.8c3.3-1.1,6.6-2.3,10-3.5c1.9,1.8,4.7,2.6,7.2,0.9c3.6-2.5,4.8-3.4,6.7-7.4
					c1.7-3.4,0.2-7.7-2.9-9.2c2.8-3.7,5.2-7.9,7.2-12.6C401.4,747.1,393.9,742.1,389.4,745.1z"/>
			</g>
		</g>
		<g>
			<g>
				<path class="st0" d="M161.4,734.8c1.8-3.3,3.4-6.7,4.9-10.2c1.8-4.3-1.9-8.4-6.3-6.3c-4.7,2.2-8.6,5.7-10.8,10.4
					c-1,2.1,0.1,4.2,1.7,5c-1,1.7-2,3.4-3.1,5.1c-1.3,2-0.6,5.6,1.7,6.7c2.1,1,4.2,1.5,6.3,1.5c-0.2,3.2,0.6,6.2,3.2,8.4
					c1.6,1.3,3.7,1.1,4.9-0.6c2.8-4.2,1.9-9.5,3.6-14.2C168.9,736.7,164.8,733.9,161.4,734.8z"/>
			</g>
		</g>
		<g>
			<g>
				<path class="st1" d="M403.5,156.1c3.6-4,0.2-12.3-5.8-9.9c-4.4,1.8-8.8,3.7-13.1,5.7c1.9-3,3.3-6.2,4-9.6c1-5.1-3.7-8.6-8.3-6.4
					c-9.7,4.6-19.9,8.7-29,14.4c-5,3.2-1,9.8,3.7,8.6c0,0,0,0.1,0,0.1c3.6-1.1,7.1-2.5,10.6-4c-4.4,3.6-9.2,6.6-12.8,9.1
					c-7.1,5-14.2,10-20.8,15.7c3.2-4.9,5-10,4.2-15.5c-0.2-1.4-1-2.4-2.1-3.2c3.5-3.5,6.9-7,10.1-10.6c4.7-5.2-1.1-11.9-7.1-9.3
					c-4.9,2.2-9.5,4.6-14.1,7.2c0.6-0.6,1.3-1.2,1.9-1.7c6.9-6.2,17.9-13,15.3-23.4c-0.7-2.9-4.3-5.2-7.2-4.1
					c-6.1,2.4-11.9,5.2-17.4,8.2c5-5.1,9.9-10.1,15-15.1c3.9-3.8,0-11-5.4-9.3c-7.3,2.3-14.1,5.3-20.6,8.9
					c5.2-5.8,10.3-11.6,15.5-17.4c3.2-3.5,0.2-10.5-5-8.6c-11.8,4.4-22.7,11.4-33.1,19.5c-0.6-2.9-4.2-5.1-7-2.3
					c-11.3,11-21.5,22.8-31.4,35c-0.3,0.4-0.6,0.8-0.8,1.2c-1-0.7-2.1-1.1-3.4-0.9c5.2-10.1,11.9-19.4,19.2-28.7
					c3.5-4.4-1.3-12.7-6.6-8.6c-0.4,0.3-0.7,0.6-1.1,0.9l0,0c0,0-0.1,0.1-0.1,0.1c-1.5,1.2-2.9,2.4-4.4,3.6c2.4-3.1,4.9-6.2,7.4-9.4
					c3.7-4.6-1.3-13-6.9-8.9c-4.5,3.3-8.9,6.8-13.3,10.3c1.1-1.4,2.2-2.8,3.4-4.2c4.6-5.3-2.4-12.3-7.7-7.7
					c-6.1,5.2-23.5,16-20,25.8c0.1,0.3,0.3,0.5,0.4,0.8c-2.4,3.9-4.7,8-6.8,12.1c-2.9,5.8,4,11.2,8.9,6.9c3-2.7,6-5.3,8.9-8
					c-3.4,5.9-6.5,12-9.2,18.5c-2.6,6.4,6.7,8.8,10.2,4.3c1.4-1.9,3-3.6,4.4-5.4c-2.4,5.6-4.4,11.5-5.8,17.7c-0.9,4,2.7,7.1,6,6.8
					c-0.6,1.9-1.4,3.8-2,5.7c-1.1,3.4,2.1,6.5,5.4,6c-1.8,4.8-3.7,9.6-5.7,14.3c-1.3,3,1.9,5.9,4.8,5.7c-0.4,4.5,7.2,6.1,9.2,1.1
					c1.4-3.6,2.8-7.1,4.2-10.7c1.1-2.9-1.7-5.6-4.5-5.6c1.7-4.3,3.4-8.7,5-13.1c1.4-3.8-2.2-6.2-5.5-5.7c2.1-5.7,4.5-11.4,7.1-16.9
					c0.1-0.1,0.1-0.2,0.1-0.4c1.7,1,4,1,6.1-0.7c12.8-10.4,26-23.5,40.2-34.1c-12.9,14.1-25.8,28.2-38.6,42.4
					c-4.9,5.3,2.7,13,7.9,7.9c12.3-12.1,24.8-24.1,39-33.5c-16.1,16.7-31.6,33.8-46.4,51.7c-4.7,5.7,2.9,13.7,8.2,8.2
					c16.8-17.4,33.8-34.6,54.2-47.1c-7.1,6-14.6,11.8-16.3,13.4c-9,8.5-16.4,18-22.3,28.8c-3.2,5.9,3.6,11.1,8.6,7.8
					c0.1,4,4.9,8.1,9.1,5.4c4.7-3.1,9.5-6.2,14.2-9.2c-5.1,4.3-9.9,8.1-11.9,9.8c-5.1,4.5,1.5,13,7.3,9.4c2.9-1.8,5.8-3.7,8.8-5.5
					c2,1.8,4.9,2.2,7.3-0.5c3.1-3.7,3.9-5.4,2.7-9.8c1.8-1.7,3.6-3.6,5.2-5.4c-0.4,4.3,4.5,8.9,8.9,6c8.5-5.5,17.2-10.6,26-15.5
					c-10.3,7.5-20.9,14.7-30.9,22.1c-6,4.4-0.9,14,6,10.2c1.8-1,3.5-2,5.3-3.1c-2.4,4.6,2,10.5,7.9,7.8c7.4-3.5,14.7-7.3,21.7-11.3
					c7.4-1.6,13-5.4,18.3-11.5c1.7-1.9,1.8-4.4,0.9-6.4c1.9-2.1,3.8-4.2,5.5-6.7c3.1-4.5-1.8-9.5-6.4-8.7
					C395.5,164.3,399.7,160.3,403.5,156.1z"/>
			</g>
		</g>
		<g>
			<g>
				<path class="st1" d="M658.8,196.6c0.1-0.3,0.2-0.6,0.3-0.9c1.4-4.3-2.9-7.2-6.6-6.6c-1.3,0.2-2.5,0.4-3.8,0.7
					c1.2-1.6,2.3-3.1,3.4-4.8c2.3-3.6-1.6-9.4-5.9-7.6c-0.7,0.3-1.3,0.6-2,0.9c0.7-1.2,1.3-2.4,1.9-3.6c2-4.3-2.4-10.1-7-7
					c-1.1,0.7-2.2,1.5-3.2,2.2c0.6-3.1-2-6.5-5.7-5.4c-4.2,1.2-7.8,2.8-11.5,5c-3.3,2-5.5,6.1-8.4,8.5c-1.7,0.1-2.8,1.7-3,3.3
					c0,0.3-0.1,0.5-0.1,0.8c-0.2,2.1,1.8,3.4,3.6,3.6c0.2,0,0.4,0,0.6,0c-0.5,0.7-1,1.4-1.4,2.1c-2.5,4.2,2.6,9.6,6.8,6.8
					c0.7-0.4,1.3-0.9,2-1.3c-2.3,3.8,1.5,9.2,5.6,7.9c-0.1,1.8,0.6,3.6,2.5,4.7c3.1,1.8,6,2.4,9.4,0.6c2.4-1.3,4.8-2.4,7.1-3.4
					c-0.4,2.6,0.5,5.5,3.6,6c5.2,0.8,9.1,0.3,13.7-2.4C665.9,203.8,663.2,197.1,658.8,196.6z"/>
			</g>
		</g>
		<g>
			<g>
				<path class="st1" d="M725.4,182.6c0.6-1,1.2-2,1.8-3c1.7-3.2,0-6.7-2.8-8c0.8-1.6,1.6-3.3,2.1-5c1.1-4-2.8-8.3-7-7
					c-1.5,0.5-2.9,1-4.3,1.6c3-3.6,6.1-7.2,9.1-10.8c2.1-2.5,2.4-7.3-1.1-8.8c-5.6-2.4-10.6-0.3-15.3,2.9c4.8-5.2,9.8-10.2,15.1-15
					c3.9-3.5-0.2-11.4-5.4-9.2c-5.6,2.3-10.8,5.1-15.8,8.2c4.4-4.2,8.4-8.7,9.2-14c0.6-4.2-3.4-8.7-7.8-6
					c-8.3,5.2-16.2,10.9-23.9,17c-1.6,1.3-3.2,2.7-4.8,4.1c4.1-6.2,8.2-12.3,12.4-18.4c3.6-5.2-3.8-9.5-8-6.2
					c-12,9.4-24,18.7-35.5,28.6c-4.6,2.7,0.2,10.6,4.8,7.4c4.2-2.9,8.3-6,12.3-9c-5.3,8-10.5,16.1-15.6,24.2c-2.6,4.1,1.6,8.7,6,7.8
					c6.3-1.4,10.4-5.5,14.4-10c-3.3,4.5-6.4,9.1-9.5,13.7c-1.5,2.3-0.6,6.1,1.9,7.3c8.1,3.8,12.4-3.1,17.8-8.8c1-1.1,2-2.1,3.1-3.2
					c-5.2,7.4-10.2,15-14.7,23c-3.1,5.4,4.4,11.6,8.8,6.8c4.5-5,9.1-10,13.8-14.8c-1.5,1.8-3,3.6-4.6,5.4c-4.1,4.8,1,12.1,6.9,8.9
					c2.8-1.5,5.5-3.4,8.1-5.3c-1.5,4.5,3.2,9.7,8.1,6.8c1.3-0.8,2.6-1.6,4-2.4c0.9,2.3,3.3,4,6.6,3.5c5-0.7,5.2-0.9,9.6-3.3
					C728.9,189.6,728.1,184.9,725.4,182.6z"/>
			</g>
		</g>
		<g>
			<g>
				<path class="st1" d="M761.5,159.2c3.3-4.9,5.8-10.1,5.5-14.9c-0.1-1.9-1-4.1-2.8-4.9c-3-1.3-4.6-1.8-7-1.3c3.3-4.9,6-10,7-15.4
					c0.8-3.9-1.6-6.8-5.5-7.2c-4.3-0.4-7.8,0.6-11.2,2.1c1.9-2.7,3.9-5.5,5.8-8.2c3.5-4.9-3.1-9.9-7.6-7.6c-0.1,0.1-0.6,0.3-1.3,0.7
					c0.3-0.3,0.5-0.6,0.8-0.9c1.9-2.2,2.1-5.2,0-7.4c-8.7-8.9-25.3,4.5-33.1,9.5l0.2,0.1c-3.6,2.3-1.7,8.7,2.9,7.2
					c0.6-0.2,6.4-2.6,12-4.9c-1.1,1.2-2.2,2.5-3.3,3.7c-2,2.2-2.1,5.4,0,7.6c2.3,2.4,5,3.2,8,2.9l-6,8.3c-3.3,4.5,2.1,9,6.4,8.3
					c6.2-1,11.7-5.6,17.6-8.2c-4.8,8.8-13.1,17-18.4,24.2c-2.2,3,0.2,7.3,3.4,8.3c5.1,1.5,7.9,1.1,12.1-2.8c0.4-0.3,0.8-0.7,1.2-1
					c-2.2,3.3-4.4,6.5-6.7,9.8c-2.6,3.7,0.9,8.4,4.9,8.5c1.3,0.1,2.5-0.2,3.7-0.6c-0.8,2.5-1.2,4.8-0.8,6.7c-0.3,0.4-0.6,0.7-1,1.1
					c-3.6,2.6-2.4,8.2,2.3,8.4c6.4,0.2,9.6-2.3,12.3-8.2c1.8-4-0.4-7.9-4.4-8.3c4.1-0.4,6.7-2.7,7.8-7.1
					C768.5,164,765.6,159.3,761.5,159.2z"/>
			</g>
		</g>
		<g>
			<g>
				<path class="st1" d="M1295.2,229.1c-1.4,0.4-2.8,0.9-4.1,1.4c-0.2-2-1.5-3.8-3.7-4.4c-0.6-0.2-1.3-0.3-1.9-0.4
					c2.6-3.6,4-7.3,3-11c-0.9-3.5-4.6-4.4-7.6-3.1c-7.4,3.4-14.5,7.1-21.6,11c5.4-5.2,10.5-10.7,14.5-17.2c2.8-4.6-2.6-8.5-6.7-6.7
					c-6.5,2.8-12.7,6.1-18.7,9.7c0.4-0.4,0.8-0.9,1.2-1.3c3.3-3.6-1-9.9-5.4-7c-10.3,6.9-21.1,13-31.3,20.1c-2,1.4-0.8,4.9,1.7,4.1
					c3.1-1,6.2-2.1,9.2-3.4c-5.3,5.5-10.6,11.1-15.9,16.6c-4.4,4.6,2.1,10.6,6.8,6.8c11-8.7,22.1-17.1,33.8-24.5
					c-9.5,8.8-19.8,17-27.3,27.8c-2.7,4,2.8,9.8,6.8,6.8c6.5-4.8,13.1-9.2,19.9-13.4c-3.4,4.1,0.9,10.9,6.5,8
					c4.1-2.2,10.4-6.7,16.7-9.9c0,0-0.1,0.1-0.1,0.1c-4.1,4.4,1.1,10.7,6.3,8.1c3.8-1.9,7.6-3.6,11.5-5.1c1.1,1.4,3.2,2.1,4.8,1
					c3.4-2.1,3.9-2.5,6.5-5.6C1303.2,234,1300.5,227.5,1295.2,229.1z"/>
			</g>
		</g>
		<g>
			<g>
				<path class="st1" d="M1320.7,275.8c-6.3-0.4-12.3,2-18,5.1c1.5-1.6,3-3.2,4.4-4.9c2.9-3.5,1.5-10.4-4.1-10
					c-5,0.4-9.8,1.4-14.6,2.7c2-2.2,3.9-4.5,5.7-6.9c3.2-4.4-2-9.4-6.5-8.4c-9.9,2.2-18.6,6.2-27.1,11.3c0.5-0.5,0.9-0.9,1.4-1.4
					c3.4-3.5,1.1-9.8-4-9.8c-13.1,0.2-22.6,7.6-33.8,12.7c-1.6-0.6-3.4-0.4-5.1,0.8c-1.3,1-2.7,2.1-4,3.1c-4.5,3.5,0.5,9.8,5.1,8.8
					c6.1-1.3,11.7-4.4,17.2-7.3c-8.7,8.3-17.7,16.3-27.1,24c-3,2.4-1.7,7.2,1.2,9c4.5,2.8,9.5,1.4,14.2-1.2c-1,0.7-2,1.4-3,2.1
					c-5.8,4.3-0.6,13.9,5.8,9.9c17.2-10.8,36.2-26.1,56.3-33.5c-12.5,10.9-26.9,20.3-39.7,30.1l-0.1,0c0,0,0,0,0,0
					c-0.4,0.3-0.8,0.6-1.2,0.9c-5.6,4.3,1.5,12.4,7.2,9.4c0.7-0.4,1.4-0.8,2.1-1.1c-1.1,4.2,4.4,8.7,9,6.5c2.8-1.3,10.4-5.7,19-10.3
					c-3,4.1,0.6,11.5,6.2,9.3c2.5-1,5-2,7.5-3c1,2.3,3.3,4,6.1,3.1c7.8-2.6,11.7-5.6,15.7-13c0.9-1.7,0.8-3.8,0-5.6
					c1.8-1.3,3.6-2.5,5.4-3.8c3.7-2.7,3.9-7.5,0-10.2c-1.4-1-2.8-1.6-4.2-2c2.5-2,4.8-4.1,7.1-6.3
					C1328.7,282,1325.7,276.1,1320.7,275.8z M1263.9,276.3c-7.6,6.1-15.8,11.7-23.9,17.2C1248.2,287.7,1255.8,281.5,1263.9,276.3z"
					/>
			</g>
		</g>
		<g>
			<g>
				<path class="st1" d="M1248.3,347.8c0.4-0.4,0.8-0.7,1.2-1.1c3.4-3.2,0.9-9.5-3.8-9.3c-4.6,0.2-9.2,1.4-13.7,3.2
					c0.6-1.8,0.9-3.7,0.8-5.7c-0.2-3-2.3-5.4-5.5-5.5c-5.4,0-10.7,1.1-15.8,2.8c2.7-3.5-1.2-9.5-5.4-6.6c-8,5.7-15.1,12.5-22.5,19.1
					c-3.7,3.3,0.2,10.7,5.1,8.7c9.5-4,19.8-9.8,30.3-12.1c-5.3,6.6-16.3,14.1-20,17.5c-4.8,4.3,1.3,11.5,6.7,8.6
					c0.8-0.4,1.5-0.9,2.3-1.3c-0.7,3.5,2.6,7.4,7.1,6.8c4.9-0.7,9.8-2.5,14.5-4.7c0.6,1.6,1.9,3,3.5,3.6c0.3,0.1,0.7,0.3,1,0.4
					c1.9,0.7,4.2-0.2,5.5-1.5c4.1-3.9,7.4-9.1,10.9-13.5C1253.4,353.5,1251.7,349,1248.3,347.8z"/>
			</g>
		</g>
		<g>
			<g>
				<path class="st1" d="M1302.8,576.2c-2.3,0.6-4.6,1.3-6.9,1.9c2.6-2.3,5.2-4.7,7.6-7.3c4-4.3,0.1-11.1-5.7-9.7
					c-7.6,1.9-15.1,4.1-22.5,6.5c3.1-2.7,6.2-5.4,9.1-8.4c3.5-3.7,0-11.5-5.4-9.2c-4.9,2.1-9.8,4.2-14.6,6.4
					c1.8-1.5,3.6-2.9,5.3-4.4c3.9-3.4-0.2-10-5-8.6c-26.3,8-49,21.3-68.6,40.8c-2.3,2.3-0.8,5.2,1.6,6c-9.4,6.9-18.5,14.4-26.7,23
					c-4.1,4.3,0.1,9.5,4.6,9c-0.6,0.5-1.2,0.9-1.7,1.4c-4.9,4,1.5,12.3,6.8,8.8c15.5-10.5,31-20.9,46.6-31.4
					c14.8-8.1,30.3-14.9,46.3-20.5c-9.4,6.2-19.5,11.4-29.8,16.6c-5.5,2.8-10.9,5.6-16.2,8.6c-14.9,8.1-29.1,17.3-42.8,27.8
					c-5.9,4.6-0.1,14.8,6,10.2c9.2-7,18.6-13.4,28.4-19.4c21.3-13,43.9-23.3,67.8-30.9c-11.2,7.6-27.3,14-34.3,18
					c-8.7,5-17.5,10-26.2,15c-8.8,4.6-17.4,9.5-25.9,14.8c-6.5,4.1-0.7,14.2,6,10.3l11.8-6.8c0,3.8,4.3,7.9,9,5.7
					c14.8-6.9,29.8-13.3,43.7-21.9c0.9-0.6,1.4-1.4,1.7-2.2c4.9-2.9,9.8-5.9,14.7-9c3.4-2.2,4.3-8.4,0-10.3
					c-0.4-0.2-0.7-0.3-1.1-0.4c10.6-5.4,20.9-11.9,23.7-23C1311.3,579.1,1307.3,575.1,1302.8,576.2z"/>
			</g>
		</g>
		<g>
			<g>
				<path class="st1" d="M1312.7,646c1.5-1.6,3.1-3.1,4.5-4.7c3.1-3.4,1.3-10.5-4.1-9.9c-5.1,0.5-9.8,1.8-14.3,3.5
					c3.6-4.5-1.9-10.4-7.1-7.9l-32.1,15.4c-5.7,2.7-27.8,17.5-33.7,15.2c-4.7-1.9-7.4,5.5-3.3,7.9c7.6,4.5,15.7-2,22.8-5.2
					c2.2-1,4.4-2,6.6-3c-10.4,6.5-21.1,12.5-32,18.5c-6.4,3.5-0.7,13.1,5.7,9.7c12.5-6.5,24.9-13.1,37.4-19.6
					c7.7-4,16.1-9.4,24.7-13.9c-4.5,3.3-9.2,6.4-14.2,9.3c-11.1,6.3-22.7,10.1-32.5,18.6c-5.5,4.7,1.5,11.6,7.1,9.2
					c4.3-1.8,8.6-3.7,12.9-5.6c0.3,1.5,1.2,2.9,2.7,3.7c3.5,1.9,6.2,2.1,10,0.3c7.6-3.6,15.2-7.2,22.7-10.8c0.1,1.2,0.6,2.3,1.6,3.4
					l0.7,0.7c1.8,2,4.8,2.1,7,0.9c0.2-0.1,0.5-0.2,0.7-0.4c2.2-1.2,3-3,2.8-4.8c2.6-3.1,4.6-5.9,5.7-10.8c0.6-2.3-0.2-4.3-1.6-5.6
					c1.6-1.6,3-3.3,4.5-5.1C1321,650.6,1316.9,646.2,1312.7,646z"/>
			</g>
		</g>
		<g>
			<g>
				<path class="st1" d="M647.3,637.6c-6.6,0.6-12.7,2.3-18.5,4.7c8.5-6.2,22.9-14.4,21-24.8c-0.4-1.9-2.1-3.3-3.8-3.8
					c-5.3-1.7-10.6-0.2-15.5,2.3c2.2-2.8,4.3-5.7,6.1-8.6c2-3.3-0.5-8.7-4.7-8.2c-3.5,0.4-6.9,1.2-10.1,2.2c2.4-1.9,4.7-3.9,7.1-5.8
					c4.5-3.7-0.5-9.7-5.2-8.9c-6.9,1.2-13.3,3.6-19.3,6.6c2.2-2.1,4.5-4,6.7-6.1c3.6-3.4-0.1-10.4-5-8.6c-6.9,2.6-13.6,5.7-20.1,9.1
					c1.9-1.7,3.7-3.4,5.6-5.1c2.9-2.7-0.1-8.5-4-6.9c-4.7,1.9-7.5,3.2-12.1,5.4c-2.1,1.1-11.5,9.8-13.6,9.9
					c-4.1,0.1-4.2,6.2-0.2,6.5c-5.3,4.6-10.7,9.3-16,13.9c-4.2,3.7,1.2,10.3,5.8,7.6c8.9-5.3,17.7-10.7,26.7-15.8
					c-8.4,7.5-16.9,14.8-25.5,22.1c-4.9,4.2,1.3,10.5,6.4,8.3c9.9-4.4,18.7-10.7,27.6-16.9c-9.4,7.8-18.9,15.5-28.3,23.3
					c-5.1,4.2,1.4,10.9,6.5,8.5c9.9-4.6,19.1-9.9,28.2-16c8.2-5.6,15.3-12.5,23.8-17.1c-14.8,16-35.7,29.3-51.4,42.5
					c-4.8,4.1,1.5,12.1,6.7,8.7c16.1-10.5,31.9-21.8,48.5-31.7c-2.7,2.2-5.3,4.5-8,6.7c-13,10.8-26.5,21-40.1,31
					c-4.7,3.5-2.1,12.5,4.3,10.2c17.6-6.4,32.7-19.7,49.7-27.6c-11.1,7.3-23.6,12.9-32.6,22.9c-4,4.5,1.4,12.7,6.8,8.8
					c2.8-2,5.5-3.9,8.3-5.6c-2.5,3.3-0.3,7.7,3.4,8.3c-0.6,0.7-1.1,1.4-1.7,2.1c-2.8,3.6-0.9,8,2.6,8.8c0.5,0.3,1.1,0.6,1.8,0.7
					c0.3,0.1,0.6,0.1,0.9,0.2c2.7,0.5,5.9-0.7,6.5-3.7c0.1-0.4,0.2-0.9,0.3-1.3c0.2-0.9,0.2-1.9-0.1-2.9l9.1-11.5
					c1.7-2.1,1.5-5.7-0.1-7.7c1.9-2.5,3.7-5.2,5.4-8.1c1-1.7,0.8-3.8-0.1-5.5c5.6-4,10.9-8.5,15.1-14.4
					C654.6,642.7,651.4,637.2,647.3,637.6z"/>
			</g>
		</g>
		<g>
			<g>
				<path class="st1" d="M621,721.3c-0.8-0.5-1.6-0.9-2.3-1.1c1.2-1.9,2.4-3.8,3.5-5.8c2-3.6-0.5-8-4.6-8.1c-4.4-0.1-8,1.1-11.4,2.9
					c0-1.9-0.4-3.7-1.4-5.4c-1.5-2.5-4.6-3.3-7.2-1.9c-5.2,2.8-10.1,5.9-15,9.2c2.3-3,3.9-6.3,3.6-10.6c-0.3-3.6-4.2-5.3-7-2.9
					c-5,4.3-9.9,8.7-14.9,13.1c-4.1,3.7-8.9,9.5-13.8,12.7c-0.1,0-0.2,0-0.3,0c-1.6-0.1-2.6,1.3-2.7,2.7c0,0.3-0.1,0.5-0.1,0.8
					c-0.2,2.1,2,3,3.6,2.8c3.5-0.5,6.4-3.1,9.1-5.5c-4,4.6-8.1,9.1-12.1,13.7c-3.3,3.7-0.1,9.1,4.7,8.1c7.8-1.6,12.3-6.6,17.8-12
					c5.3-5.2,11.2-9.7,17.3-13.8c-3,3.2-6,6.1-6.9,7c-6,6.1-12.8,11.5-19.5,17c-5.3,4.3,2.2,11.5,7.4,7.4l19.6-15.4
					c4.1-3.2,9.5-8.7,15.2-13c-5.2,7.1-11.1,13.5-18,19.5c-5.2,4.5,2.3,11.6,7.4,7.4c0.6-0.5,2.9-2.4,5.9-4.8
					c0.1,2.5,1.8,4.6,4.6,4.7c0.3,0,0.6,0,0.9,0c1.9,0.1,4.1-1.4,4.4-3.4c0-0.2,0.1-0.5,0.1-0.7c0-0.3,0-0.5,0-0.8
					c3.4-5.6,9-10.7,12.9-15.6C624.3,726.8,624,723.3,621,721.3z"/>
			</g>
		</g>
		<g>
			<g>
				<path class="st1" d="M262.6,600.8c1.6-2,3.3-4,4.9-5.9c3.5-4.1,0.2-10.2-5.3-9c-0.7,0.1-1.3,0.3-1.9,0.4
					c2.2-2.7,4.4-5.4,6.6-8.1c3.6-4.5-0.9-11.9-6.5-8.5c-1.7,1-3.4,2.1-5.1,3.2c2.4-2.9,4.1-5.2,4.7-6.8c1.7-4.5-4-8-7.7-5.9
					c-2.6,1.4-5.1,2.9-7.6,4.4c3-4.4,5.5-9.1,6.8-13.9c1.1-3.9-3.7-8.4-7.4-5.7c-3,2.2-21.2,17.1-34.5,27.3c6.5-8.5,13-17,19.5-25.6
					c2.7-3.6-2.6-8.7-6.2-6.2c-11,7.6-22,15.1-32.2,23.6c-0.1,0.1-0.3,0.1-0.4,0.2c-1.1,0.9-2.2,1.9-3.3,2.8
					c-2.5,2.1,0.7,5.6,3.3,4.3c5-2.5,9.8-5.4,14.5-8.3c-5.1,6.5-10.2,13-15.2,19.5c-1.9,2.4-2,5.9,1,7.6c5.7,3.3,9.7-1,14.5-4.6
					c7.7-5.6,15.4-11.2,23-16.8c-9.5,10-21.5,19.2-29.3,27c-2.8,2.8-1.3,7.4,2.3,8.5c6.1,2,9.6-0.2,14.3-4.1c1-0.8,2-1.6,3-2.4
					c-0.7,0.7-1.4,1.4-2.1,2.1c-5.2,5.3-9.6,8.8-6.3,16c1.5,3.2,6,3.2,8.4,1.1c1.5-1.4,3-2.8,4.5-4.2c-0.9,1-1.9,2.1-2.8,3.1
					c-2.3,2.4-2.1,6.8,1.1,8.5c2.2,1.1,4.6,1.8,6.8,1c-1.4,1.6-2.7,3.3-4.1,4.9c-3.6,4.3,1.4,12.5,6.5,8.5c2.6-2,5.2-4,7.8-6
					c-2.4,2.9-4.9,5.9-7.3,8.8c-3.9,4.6,0.9,11.3,6.5,8.4c0.4-0.2,7.5-4.5,13.2-8.5c1.8,2.4,5.2,3.4,7.5,0.4c2-2.5,4-5.1,6.1-7.6
					c2.2-2.8,2-6.4-1.1-8.4c-0.6-0.4-1.3-0.9-1.9-1.3c-0.8-0.5-1.6-0.7-2.5-0.7c3.5-4.9,6.9-9.8,10-15
					C271.1,604.9,266.8,599.2,262.6,600.8z"/>
			</g>
		</g>
		<g>
			<g>
				<path class="st1" d="M211.1,646.8c-0.6,0.5-1.3,0.9-1.9,1.3c1.7-2.9,3.3-5.8,4.9-8.9c2-3.8-1.2-8.5-5.6-7.3
					c-2.1,0.6-3.8,1.5-5.4,2.7c1.6-3.8,3.2-7.5,4.6-11.4c0.9-2.6-1-5.6-3.5-6.2c-6.7-1.8-11,0.3-16.1,4.5c2.4-5.1,4.8-10.2,7.3-15.2
					c2.3-4.6-2.2-8.9-6.8-6.8c-10.4,4.9-16.9,13.2-23,22.1c0.5-1.2,0.9-2.2,1.1-2.9c2.5-7.5,5.5-14.8,8.3-22.2h0
					c1-3.7-4.9-7.4-7.2-3.1c-4.6,8.8-8.2,18-11.5,27.3c-2.6,7.3-6.9,15.5-2.8,22.8c1.4,2.5,5.6,3.4,7.6,1
					c5.6-6.7,10.1-14.5,15.5-21.5c-4.6,9.9-8.9,19.9-12.5,30.2c-2.1,6,6.1,8.1,9.3,3.9c3.5-4.5,13.1-20.6,21.1-27.4
					c-3.1,7.4-6.8,14.4-11.1,21.3c-2.2,3.6,1.5,9.1,5.7,7.5c1.1-0.4,2.1-0.9,3.1-1.5c0,0.1-0.1,0.1-0.1,0.2
					c-2.6,3.6,1.6,8.2,5.5,7.1c3.1-0.9,6-1.9,8.8-3.2c0.9,3.1,5.4,5.3,8,2.3c3.4-3.9,4.6-7,4.3-12.3
					C218.3,647.7,214.3,644.4,211.1,646.8z"/>
			</g>
		</g>
		<g>
			<g>
				<path class="st1" d="M303.9,545.9c-4.8,0.3-9.1,0.2-13.3,3.1c-1.1,0.8-3.4,2.7-6.1,4.9c3.3-5.5,6.7-11,10-16.5
					c1.3-2.1,0.5-4.9-1.6-6.2c-10.4-6.3-25.9,12.2-31.4,18.9c-1.2,1.5-1.4,2.9-0.6,4.6c0.3,0.7,0.6,1.3,0.9,2c0.5,1.1,2,1.9,3.2,1.8
					c0.7-0.1,1.5-0.1,2.2-0.2c2.2-0.2,4.2-2.1,3.4-4.5c-0.2-0.6-0.4-1.1-0.5-1.7c3.1-2.2,6.7-5.8,9.9-8.8
					c-4.6,7.2-9.1,14.3-13.7,21.5c-1.9,2.9,0.1,6,2.9,7.2c3.9,1.6,8,0.2,12-2.3c-3.2,3.5-6.5,7-9.8,10.5c-3.7,3.9,0.1,9.2,4.9,8.4
					c1.7-0.3,7.3-3,12.5-5.5c-4.2,5-8.5,9.8-13.1,14.5c-2.4,2.4-1.7,8,2.2,8.5c3.3,0.5,6.1-0.3,8.8-1.3c-1.6,2-3.3,4-4.9,6
					c-2.6,3.1-0.9,8.9,3.1,9v0c-0.9,2.7,1.5,6.3,4.6,6c8.1-0.8,11.7-9.5,14.8-16.1c1.2-2.7,0-6-2.3-7.4c1.1-1.4,2.3-2.7,3.4-4.1
					c2.7-3.5,1.2-8.6-3.6-8.8c-2.1-0.1-4.1,0.4-6,1.1c3.6-4.3,7-8.6,10.3-13.1c1.5-2,0.5-5.9-1.8-6.9c-3.8-1.6-7-1.6-10.1-0.7
					c4.4-5.1,8.7-10.3,12.9-15.6C309.6,551.2,308.5,545.7,303.9,545.9z"/>
			</g>
		</g>
		<g>
			<g>
				<path class="st2" d="M330.8,324.1c1.7-3.5,2.8-6.9,2.7-10.3c-0.1-4.2-4.6-6.9-8.3-4.8c1.5-1.9,3-3.9,4.5-5.8
					c3-3.8,0.4-11.7-5.5-9.4c-5.1,2-9.8,4.5-14.2,7.3c4.2-7.8,8.4-15.6,12.5-23.5c2.4-4.5-2.9-11.3-7.7-7.7c-1.7,1.3-3.4,2.6-5,3.9
					c6.2-10.7,10.9-21.8,10.9-32.7c0-4.2-4.8-7.2-8.5-4.9c-3.6,2.3-7,4.7-10.3,7.2c3.7-6.5,7.5-13.1,11.2-19.6
					c2.3-4-1.5-10.2-6.4-8.3c-4.9,1.9-9.5,4.1-13.9,6.6c1.3-2.7,2.7-5.4,4-8.2c2.2-4.7-2.3-9.7-7.1-7.1c-4.7,2.5-9.1,5.2-13.3,8.2
					c0.1-0.4,0.3-0.9,0.4-1.3c0.8-3.7-4.1-5.9-6.1-2.6c-3.2,5.2-5.6,10.4-8.1,15.9c-2.3,5,3.4,9.9,7.7,6c2.7-2.5,5.5-4.7,8.3-6.8
					c-2.7,4.9-5.5,9.7-8.3,14.5c-3.2,5.4,4.4,11.3,8.7,6.7c4.7-5,9.7-9.2,15.1-12.8c-6.5,11.3-12.9,22.6-19.4,33.9
					c-3.2,5.6,4.3,11.5,8.9,6.9c7.5-7.5,15-14.7,23.3-21.2c-6,16.8-21,35.3-28.6,48.2c-3.3,5.5,4.3,11.4,8.9,6.8
					c4-4,8.1-7.8,12.2-11.6L286.7,321c-3,5.6,4.2,11.4,8.8,6.8c1.3-1.3,2.6-2.5,3.8-3.7c-3.5,4.5-6.9,8.9-10.4,13.4
					c-4.3,5.5,2.9,13.4,7.9,7.9c4.1-4.4,8.5-8.4,13-12.2c-2.3,2.5-4.7,4.9-6.9,7.1c-2.4,2.2-4.7,4.6-6.9,7.1c-0.5,0.6-1,1.1-1.4,1.6
					c-4.5,5.4,3.2,13.3,7.8,7.8c0.7-0.8,1.3-1.5,2-2.2c1.5-1.7,3.3-3.5,5.2-5.3c2.5-2.4,5.2-4.5,7.9-6.5c-1.8,2.6-3.8,5.2-6.4,8.1
					c-4.2,4.9,2.7,12,7.1,7.1c8.2-7.7,13.2-16.5,16.6-27.2C336.1,327.2,333.7,324.7,330.8,324.1z"/>
			</g>
		</g>
		<g>
			<g>
				<path class="st2" d="M454.2,290.2c-0.9-2.5-3.7-4.8-6.5-3.7c-0.6,0.2-1.3,0.6-2.1,1c1.6-4.6-2.4-9.1-7.3-6.7
					c-0.2,0.1-0.4,0.2-0.6,0.3c0.6-2.9-2.2-5.2-5-4.6c-1.9,0.4-4,0.4-5.9,0.3c-2.4-0.1-3,2.7-1.7,4.2c0.8,1,1.6,1.6,2.5,2.2
					c-1.4,2.1-3.2,4.1-5.4,5.6c0-0.1,0-0.1-0.1-0.2c-2.1-3.6-5.1-4-8.4-2.9c2.4-4.2,4.4-8.5,6.3-13.2c1.5-3.8-3.6-7.4-6.8-5.2
					c-1.4,0.9-2.8,1.9-4.2,2.8c0.7-1.7,1.4-3.4,2.2-5.2c2-4.6-3.1-9.3-7.2-5.5c-2.9,2.7-6,5.1-9.2,7.3c0.7-3.4,1.9-6.6,3.7-10
					c1.9-3.4-1.9-7.5-5.4-5.4c-2,1.3-4.1,2.4-6.2,3.4c-2.4,1.2-1.2,4.1,0.9,4.7c-2.1,4.9-2.9,10.1-2.6,15.8c0.2,3.5,3.7,5.6,6.9,3.9
					c1.4-0.7,2.7-1.5,4-2.3c-0.5,1.1-1,2.2-1.5,3.3c-1.7,3.9,2.1,9.4,6.5,6.5c0.4-0.3,0.8-0.6,1.3-0.8c-2.2,3-4.5,5.9-7.2,8.7
					c-2.8,3-1,8.5,3.5,8.4c4.8-0.2,7.9-1.8,11.8-4.8c0,0,0.1-0.1,0.1-0.1c-3.5,4.8-7,9.5-9.9,14.8c-2.2,4,3.2,8.5,6.4,5
					c3.8-4.1,12.2-12.3,15.2-20c1,0.6,2.3,0.8,3.7,0.2c2-0.8,3.9-1.7,5.9-2.6c0.1,1.5,0.6,2.9,1.8,4.3c2.8,3.1,7.7,1.4,11.9-0.6
					c0.8,2.7,2,5.1,4.9,5c2.1-0.1,3.7-1.3,4.4-3.3C456,297.2,455.5,293.8,454.2,290.2z"/>
			</g>
		</g>
		<g>
			<g>
				<path class="st2" d="M600.4,241.8c-1.5,1.1-2.9,2.2-4.4,3.3c0.2-0.8,0.4-1.5,0.5-2.3c0.5-2.1-1.4-4.1-3.5-3.5
					c-1.6,0.4-3,1.1-4.4,1.9c-1.3,0.7-1.2,3.3,0.5,3.5c0.3,0,0.6,0.1,0.9,0.1c-0.7,2.4-1.4,4.8-2.1,7.2c-0.8,2.6,2.3,5.2,4.7,3.6
					c0.5-0.3,1-0.7,1.5-1c-0.1,0.4-0.3,0.8-0.4,1.2c-0.9,3.2,3.6,6.2,5.8,3.4c0.9-1.1,1.6-1.9,1.9-3.2c1.6-3.3,2.8-6.9,4.1-10.2
					C606.6,242.9,602.8,240.1,600.4,241.8z"/>
			</g>
		</g>
		<g>
			<g>
				<path class="st2" d="M643.2,234.5c-8.2,2.3-15,6.5-21.5,11.4c1.8-3,3.5-6,5.2-9.1c1.9-3.4-3-7.5-5.6-4.3
					c-8.3,10.2-15.7,21-23.2,31.8c-2.9,4.2,2.7,9.5,6.9,6.9c3.4-2.1,6.6-4.5,9.7-7c-9.7,10.7-19,21.8-26.5,34
					c-3.2,5.2,3.8,9.9,8.1,6.2c7.3-6.3,15.5-15.7,24.6-21c-7.2,11-15.1,21.6-23.1,32.2c-3.1,4.1,1.4,7.8,5.4,7.3
					c-0.9,1.2-1.7,2.3-2.6,3.5c-2.4,3.2,1,6.7,4.1,7.1c6,0.8,5.8,0.6,11.2-2.1c4.1-2.1,2.3-7.3-1.2-8.4c3.3-4.8,6.4-9.7,9.1-15.1
					c1.4-2.8-0.2-6.1-2.7-7.2c5.4-7.8,10.6-15.7,15.6-23.8c1.9-3.1-0.5-7.8-4.3-7.5c-4.1,0.3-7.9,1.4-11.5,2.9
					c8.9-10,18.4-19.7,27.2-29.4C651.4,239.2,648.3,233,643.2,234.5z"/>
			</g>
		</g>
		<g>
			<g>
				<path class="st2" d="M742.5,220c4.3-4.1-1.1-9.5-5.8-7.5c-6.5,2.8-12.6,6.1-18.6,9.6c5.3-5.5,10.7-10.9,16.3-16.1
					c4-3.7-1.1-9.3-5.5-7.2c-8.8,4.2-22.1,14.1-32.4,16.2c-0.1,0-0.2-0.1-0.3-0.1c-1.6-0.7-3.9-0.6-4.7,1.2c-0.2,0.3-0.3,0.7-0.5,1
					c-1.1,2.5,0.2,5.1,3,5.3c4.1,0.3,8.6-0.9,13.3-2.6c-8.4,8.9-16.4,18.1-24,27.8c-3.9,4.9,1.9,10.9,6.9,6.9
					c6.8-5.4,13.5-10.7,20.5-15.7c-5.3,5.7-10.5,11.5-15.6,17.4c-7.8,9.1-14.8,17.4-13.9,29.9c0.2,3.4,4.2,6.7,7.5,4.3
					c3.8-2.8,7.2-5.9,10.4-9.3c-3.1,4.4-6.1,8.8-9.1,13.2c-5.1,7.6-10.7,16.6-1.3,22.7c1.2,0.7,2.5,0.9,3.7,0.5
					c-3.9,6.3-7,13.2-8.3,21c-0.6,3.5,1.4,6.2,5,6.6c4.9,0.5,9-2,12.8-5.7c-5.2,8.9-10.5,17.9-15.7,26.8c-3.1,5.3,4.7,11.7,8.7,6.7
					c5.6-6.9,11.3-13.6,17.5-19.7c-3.4,9.6-6.8,19.2-10.3,28.9c-1.4,3.9,1.7,6.6,5,6.7c0.3,3.8,4.1,7.3,8,4.5
					c1.5-1.1,3.1-2.2,4.6-3.3c0.1,4.3,5.4,8,9,3.9c5.1-5.8,7.6-10.3,8.8-18c0.6-3.5-2.3-7.5-5.8-7c1-2.2,2-4.4,2.9-6.7
					c1.7-4.4-4.3-9-8.1-6.2c-1.7,1.2-3.3,2.6-4.9,3.9c2.7-7.5,5.3-15,8-22.4c1.6-4.5-4.2-9-8.1-6.2c0,0,0,0,0,0
					c4-7.8,6.9-15.7,7.3-23.3c0.3-4.6-4.8-6.4-8.4-4.8c-5.4,2.4-9.3,5.3-13.1,9.1c9.6-13.2,21.6-25.3,26.9-40.8
					c1.4-3.9-3.9-8.5-7.4-5.7c-4.3,3.3-8.4,6.8-12.3,10.4c10.6-14.7,21.5-29.4,23.2-31.5c3.6-4.6-0.7-10.1-6.1-7.9
					c-16.1,6.8-25,21.4-36,33.9c5.5-9.2,14.9-17.4,20.9-24.2C724.7,237,733.5,228.5,742.5,220z"/>
			</g>
		</g>
		<g>
			<g>
				<path class="st2" d="M1187.3,319.1c1.6-2.9,2.2-5.9,1.1-9.2c-0.9-2.8-4.1-5.3-7.2-4.1c-4,1.6-7.9,3.1-11.9,4.7
					c-1.2-2.4-4.3-4-6.9-3.4c-6,1.2-12,2.7-17.9,4.2c1.8-1.9,3.5-3.9,5.1-6.1c3.1-4.2-2-9.3-6.3-8.2c-10.7,2.7-21.3,5.5-31.9,8.4
					c5.1-5.1,7.8-10.8,5-17.1c-0.9-2.2-4-3.2-6.2-2.5c-9.5,2.9-18.9,5.9-28.4,8.8c3.7-3.6,7.2-7.5,10.6-11.7
					c3.4-4.2,0.3-10.4-5.3-9.2c-9.2,2-18.3,4.2-27.3,6.7c3.8-3.4,7.6-6.9,11.3-10.5c3.2-3,0.9-9.4-3.7-9c-6.1,0.5-11.8,1.4-17.4,2.9
					c1.3-2.4,1.9-4.8,1.4-7.3c-0.4-1.8-2.3-2.5-3.8-2.2c-0.4,0.1-0.8,0.2-1.2,0.2c-1.5,0.3-2,1.7-2,3c-1.8,0.3-3.4,1.6-4.8,4
					c-4.8,4-9.3,8.6-13.9,12.9c-4.2,3.9,1.2,10.5,6,7.8c6.3-3.5,12.4-6.1,18.9-7.9c-5.7,5-11.5,10-17.5,14.8
					c-4.3,3.4,0.3,10.6,5.3,9c11.2-3.7,22.6-6.9,34-9.8c-6.2,5.8-13,11-20.6,15.6c-5.3,3.2-1.8,12,4.3,10.1
					c13.8-4.3,27.6-8.6,41.3-12.9c-8.8,6-20.6,13.5-22.3,14.6c-5,3.4-2,11.9,4.2,10.1c15.3-4.5,30.7-8.7,46.1-12.7
					c-6.7,4.5-14.1,8-21.8,11.4c-5.8,2.6-1.6,12.7,4.4,10.4c6.2-2.4,12.5-4.6,18.8-6.6c-3.1,4-0.4,11.1,5.7,9.2
					c3.5-1.1,6.9-2.2,10.2-3.4c-2.4,4.2,1.2,10.8,6.7,8.9c4.5-1.5,9-3,13.5-4.5c-2.3,4.3,1.5,11.2,6.9,8.9c3.7-1.5,6.3-2.7,9.8-4.6
					c2.1-1.2,2.6-3.7,1.8-5.8c2.7-2.7,5.4-5.3,8.1-8C1192.6,326,1190.9,320.6,1187.3,319.1z"/>
			</g>
		</g>
		<g>
			<g>
				<path class="st2" d="M1121.8,391.9c-6.7-0.2-13.4,0.7-20,1.6c0.5-1,0.9-2.1,1.2-3.3c0.7-2.4-0.5-4.5-2.4-5.9
					c-4.2-3.1-11.2-2.6-18.2-0.9c0.5-2,0.1-4-1.7-5.9c-4-4-10.6-3.6-16.9-2c0.3-0.5,0.5-1,0.8-1.6c1.4-3.2-0.8-6.9-4.6-6
					c-3.5,0.8-6.8,1.8-10,2.9c0.3-0.8,0.7-1.7,1-2.6c1.1-3.3-3.7-5-5.4-2.3c-2,3.5-4.4,6.8-7.2,9.8c-3,3.5,0.7,8.1,4.8,6.2
					c2.5-1.2,5-2.1,7.4-3c-1,1-2,2-3.1,2.9c-3.7,3.2,0.2,9.9,4.8,8.3c4.8-1.7,9.5-2.9,14.4-4c-1.8,1.8-3.7,3.6-5.5,5.4
					c-1.3,1.3-1.7,3.1-1.3,4.8c-0.5,0-1,0-1.4,0.3c-5.6,2.8-20.5,13.3-18.7,20.8c1.7,7,9.8,5.7,16.8,3.7c-1.8,2.8-4.5,5.6-5.7,7.3
					c-2.8,3.8-4.9,7-4.8,11.8c0,1.6,1.6,3,3.3,2.5c5.8-1.9,8.6-6.7,11.9-11.5c4.1-5.8,7.6-10.7,6.1-17.9c-0.5-2.6-3.4-3.7-5.7-3.3
					c-2.4,0.5-6.8,2.2-10.6,3c3.3-4.1,9.7-10.3,11.3-12.5c0.1-0.1,0.1-0.3,0.2-0.4c1.1,0.6,2.3,0.8,3.7,0.2c4.1-1.6,16.4-6.9,24-7.7
					c-1,1.6-2.1,3.1-3.2,4.5c-2.2,3.1,0.7,8,4.5,7.8c11.3-0.7,22.1-1.5,32.1-7.2C1126.1,396.1,1124.9,392,1121.8,391.9z"/>
			</g>
		</g>
		<g>
			<g>
				<path class="st2" d="M1191.6,663.3c2.6-3.7-1.7-9.3-5.9-7.7c-7.5,2.8-15.1,5.6-22.6,8.4c5.8-5.1,11.5-10.2,17.3-15.3
					c3.9-3.4-0.2-10-5-8.6c-8.4,2.5-16.9,5-25.3,7.5c3.6-3.7,7.5-7.1,11.7-10.4c4.4-3.5-1.2-9.8-5.8-7.5c-4.8,2.8-9.9,4.9-15.2,6.4
					c-3,1-2.6,5.8,0.8,5.7c0.1,0,0.2,0,0.3,0c-3.9,3.9-7.5,8.1-10.9,12.8c-2.7,3.7,1.7,8.6,5.7,7.4c6.4-1.9,12.8-3.8,19.3-5.6
					c-7,6.2-14,12.3-21,18.4c-3.8,3.4,0.2,10.5,5.1,8.7c9.9-3.6,19.7-7.3,29.6-11c-19.5,18.5-44.7,30.9-60.6,53.5
					c-3.1,4.4,2.9,9.9,7.2,7.2c14.6-9.2,29.5-17.9,44.6-26.1c-18.1,15.7-41.7,25.8-58.4,43.4c-4.6,4.9,2.3,11.6,7.3,7.3
					c12.3-10.8,25.7-18.6,40.7-24.1c-8.5,7.6-25.4,17.5-28.8,19.9c-9.1,6.5-18.2,12.9-27.3,19.4c-3.5,2.4-7,4.8-10.4,7.4
					c-5.3,4-0.3,13.1,5.3,9.1c3.6-2.6,7.3-5.2,10.9-7.8c12.9-8.8,26.5-16.2,41-22.1c-6.6,6.4-13.7,12.3-21.1,17.8
					c-10.2,5.8-19.9,12.6-29.1,20.2c-4.4,3.6,1.4,11,6.1,7.9c10.6-7.1,21.1-14.2,31-21.9c0.7-0.4,1.3-0.7,2-1.1
					c-5.8,7.3-12.9,13.2-21.6,18.4c-4,2.4-2.1,8.1,2.3,8.4c1.7,0.1,3.5,0.2,5.2,0.3c3.4,0.2,4.6-2.7,4-5.2
					c11.4-7.9,20.1-18.1,26.7-30.7c1.1-2.1,0.6-4-0.6-5.2c5.5-5.2,10.7-10.6,15.6-16.6c2.9-3.6,0.3-9.7-4.8-8.2
					c-2,0.6-3.9,1.3-5.9,1.9c8.1-5.3,16.7-11.1,14.3-21.7c-0.5-2.2-2.7-3.6-4.8-3.6c9.9-7.5,18.9-15.9,25.6-27
					c2.7-4.5-2.5-8.9-6.8-6.8c-10.8,5.4-21.5,11-32.1,16.8C1162.8,691.1,1179.8,680,1191.6,663.3z"/>
			</g>
		</g>
		<g>
			<g>
				<path class="st2" d="M1252.4,746.3c-5.5,1.6-11,3.4-16.5,5.1c4-5,8.4-9.7,13.3-12.2c3.3-1.6,1.8-7.2-1.9-7
					c-12.7,0.8-21.7,16.9-29.3,25.7c-3.8,4.4,0.9,10.4,6.1,7.9c4.3-2.1,8.7-3.9,13.2-5.6c-4.9,5.2-8.9,10.9-9,17
					c0,1.3,0.5,2.4,1.3,3.1c-4.1,4.3-7.9,8.8-10.9,13.7c-2.3,3.8,2.8,7.2,5.9,4.5c8-7,14.8-15.6,22.2-23.2c3.4-3.5-0.8-8.3-4.8-6.6
					c4.6-5.7,11-11.3,14.6-15.4C1259.2,750.4,1256.8,745,1252.4,746.3z"/>
			</g>
		</g>
		<g>
			<g>
				<path class="st2" d="M1286.8,768.3c-3.9-0.7-7.2,0.7-10.5,2c0,0,0,0,0,0c2.5-2.7-0.6-6.7-3.9-5c-2.3,1.2-6,3.3-9.6,4.6
					c-0.5-1.4-1.8-2.5-3.7-1.9c-2.7,0.8-4.5,1.8-6.6,3.7c-2,1.8-0.8,5,1.5,5.7c2,0.6,4,0.6,5.9,0.2c0.3,1.3,1.2,2.4,2.9,2.8
					c3.5,0.9,7.2,1.4,10.8,0.6c1.4-0.3,10.3-4.1,10.7-3.1c1.2,2.5,5.1,2.3,6.3,0C1292.7,774.4,1291.5,769.1,1286.8,768.3z"/>
			</g>
		</g>
		<g>
			<g>
				<path class="st2" d="M815.7,763.4c-3.2,1.1-6.4,2.2-9.6,3.3c3.2-3,1.2-8.3-2.7-9.8c-13.5-5.2-25.8,0.9-38.8,5.4
					c-3.7,1.3-7.4,2.6-11.1,3.8c1.5-1.4,2.9-2.9,4.1-4.5c2.4-3,2.2-7-1.2-9.2c-8.5-5.5-16-2.9-25.5-0.4c-4.7,1.2-9.3,2.4-14,3.6
					c4.5-2.5,9.1-5,13.6-7.4c5.5-3,2.3-10-2.9-10.7c-15.9-2-31.2-0.7-46.4,2.3c4.7-2.9,9.4-5.8,14.1-8.8c2.7-1.7,4-6.3,1.1-8.7
					c-10-8-24.4-5.5-38.3-0.8c4.2-3.6,8.4-7.2,12.6-10.8c3.4-2.9,0.8-9.7-3.8-9.1c-6.4,0.8-12.4,2-18.3,3.7c0.4-0.4,0.8-0.9,1.2-1.3
					c2.7-3.3-0.8-8.8-4.8-6.2c-8.2,4.4-13.6,10.7-19.2,18c-3.5,4.5,3,9.5,7.2,7.2c4.5-2.4,8.9-4.4,13.4-6
					c-6.9,5.7-13.9,11.5-20.7,17.3c-4.3,3.7,0.3,11.1,5.5,9.4c8.3-2.7,32.5-14.2,47.5-15.5c-12.8,8-25.7,15.7-38.9,23
					c-5.6,3.1-1.8,12.3,4.4,10.4c20.7-6.5,41.1-12.6,62.4-13.6c-12.3,6.7-24.7,13.4-37,20.1c-5.9,3.2-1.8,12.4,4.5,10.7
					c12.5-3.3,25-6.5,37.5-9.8c6.7-1.7,20.1-7.7,30.2-8.3c-11.6,9.5-27.7,16.1-39.8,23.2c-5.6,3.3-1.9,12.9,4.5,10.7
					c13.6-4.7,27.2-9.4,40.9-14.1c6.6-2.3,15.1-6.3,23.9-9.5c-13.2,6.3-26.6,12.3-40.2,17.9c-7.1,2.9-4.5,12.7,3.2,11.4
					c12.6-2.1,25.1-5.5,37.4-9.4c-5.1,2.4-10.4,4.7-15.8,6.7c-7,2.6-4.3,13.7,3.1,11.4c2.3-0.7,4.7-1.4,7-2.1
					c-2.3,4.5,3.6,11.1,8.4,7.6c3.4-2.5,6.4-4.7,9.7-7.3c0.6-0.4,0.9-1,1.1-1.6c3.3-2.8,6.6-5.6,10-8.3c2.1-1.7,2.2-4.3,1.2-6.3
					c8.7-5.3,17.1-11.2,25.2-17.8C826.2,769.5,821.2,761.5,815.7,763.4z"/>
			</g>
		</g>
		<g>
			<g>
				<path class="st2" d="M659.3,842.2c-0.6-2.6-3.3-3.7-5.7-3.3c-2.4,0.5-4.7,0.9-7.1,1.4c0.3-0.3,0.7-0.6,1-0.9
					c2.7-2.4,1.2-7-2.1-7.9c-4.8-1.2-9.4-0.8-13.9,0.1c1.8-1.6,3.4-3.3,5-5.1c2.3-2.7,1-7.6-3.1-7.5c-4.6,0.2-9.1,0.3-13.7,0.5
					c-1.7,0.1-4.8,0.6-7.4,0.6c2.8-3.3,8.5-6.7,9.6-10.4c0.8-2.7-2.5-5.6-5-3.9c-4.4,3-18.5,12.3-14.3,19.5c1.5,2.5,4.2,3,6.8,3.3
					c3.7,0.3,7.6,0.2,11.5-0.1c-3.2,2.3-6.7,4.2-10.2,6.2c-4.3,2.4-2,8.2,2.3,8.6c6.3,0.6,12.5-1.7,18.7-2.8c-1.7,1.5-3.4,3-5.1,4.4
					c-3.8,3.3,0.3,8.7,4.6,7.9c6.2-1.3,12.4-2.5,18.6-3.8c-0.1,0.8-0.1,1.6-0.2,2.4c-2.3,5.3,5.1,9.9,7.9,4.6
					C660.1,851.4,660.6,847.4,659.3,842.2z"/>
			</g>
		</g>
		<g>
			<g>
				<path class="st2" d="M617.4,854.9c-1-0.2-2.1-0.1-3.2,0c1.8-1.1,3.6-2.2,5.2-3.6c2.9-1.2,3-7.7-1.4-7.2
					c-4.5,0.5-8.3,2.9-12.1,5.2c-4.2,2.5-8.7,5.9-11.7,9.7c-2.7,3.5-0.3,8.6,4.4,7.6c5.3-1.2,10.7-2.2,16.1-3.2c0,0.2,0,0.3,0,0.4
					c0.5,1.4,1.3,2.2,2.8,2.6c1.2,0.4,2.9,0,3.8-1C624.9,861.3,622.9,855.8,617.4,854.9z"/>
			</g>
		</g>
		<g>
			<g>
				<path class="st2" d="M204,675.4c-12.1,10.4-24.9,20.3-35.8,32c-2.5,2.6,0,6.9,3.5,6c0.1,0,0.1,0,0.2,0c-0.9,1.7-1.8,3.5-2.5,5.3
					c-1.4,3.4,2.1,6.4,5.3,6.3c-3,3-6.1,6-9.3,8.9c-3.4,3.1-0.5,8.1,3.5,8.4c4.3,0.3,6.3-0.2,9.6-3.5c2.2-2.3,4.6-4.3,7-6.3
					c-4.6,5.5-10,11.1-11.8,13.4c-2.7,3.5-0.4,10.4,4.9,8.4c2.8-1,5.4-2.2,8-3.4c-0.4,0.7-0.8,1.3-1.2,2c-2.4,3.6,1.6,8.7,5.6,7.3
					c0.3-0.1,0.7-0.2,1-0.3c0.1,1.6,1.4,3.1,3.4,2.5c6-1.6,9.5-3.7,13.8-8.2c3.1-3.3,0-8.6-4.4-7.5c-1.7,0.4-3.5,0.9-5.2,1.3
					c1.3-2.7,2.5-5.5,3.5-8.4c1.2-3.3-2.3-6.7-5.5-6.3c3.5-5.2,5.8-10.7,4.8-16.2c-0.4-2.5-2.8-3.7-5.1-3.6c3.1-4.2,6.2-8.4,9-12.8
					c2.8-4.3-2.5-8.7-6.6-6.7c3.9-3.9,7.8-7.8,11.2-11.5C215.2,677.6,208.8,671.3,204,675.4z"/>
			</g>
		</g>
		<g>
			<g>
				<path class="st2" d="M144.6,740.3c-0.5,0.2-1,0.3-1.5,0.5c0,0,0,0,0,0c1-2.3-1.4-4.8-3.7-4.8c-2.8,0-5.6,0.3-8.4,0.8
					c-3.2-0.3-6.1,0.6-8.7,3c-2.6,2.5,0,7.4,3.6,6.1c2.6-0.9,5.1-1.5,7.7-1.9c-0.3,1.9,0.4,4.1,2.6,4.5c1.5,0.3,2.9,0.4,4.3,0.4
					c0.1,2.2,1.2,4.1,4,5.1c5.2,1.8,4.1-6.2,5-8.7C150.6,742.4,147.3,739.3,144.6,740.3z"/>
			</g>
		</g>
		<g>
			<g>
				<path class="st2" d="M292.1,771.1c0.9-1.2,1.9-2.4,2.7-3.7c1.6-2.3,0.6-6.5-2-7.7c-1.3-0.6-2.7-1-4-1.1c2.8-3.2,5.5-6.5,8.1-10
					c2.5-3.2-0.8-8.9-4.9-8.5c-3.5,0.4-6.7,1.3-9.7,2.4c2-1.9,4.1-3.7,6.1-5.6c4.4-4,4.4-7.3,3.1-12.4c-0.9-3.8-5.1-4.7-8.3-3.4
					c-1.9,0.8-3.7,1.7-5.5,2.6c4.6-6.5,8.9-13.2,12.9-20.2c2.9-5-2.7-9.3-7.3-7.3c-3.5,1.5-6.6,3.5-9.6,5.7
					c7.6-9,14.9-18.3,21.7-28.1c3-4.4-2.7-8.8-6.7-6.7c-3.7,1.9-7.4,3.8-10.9,6.1c5.3-5.4,10.7-10.7,16.4-15.8
					c3.8-3.4-0.2-9.3-4.7-8.1c-4.5,1.1-8.5,3.2-12.3,5.5c3-2.8,6-5.6,9.1-8.4c3.4-3-1-8.6-4.8-6.3c-4.6,2.8-9.2,5.5-13.8,8.1
					c-0.8-2-3.2-3.2-5.4-1.2c-5.2,4.6-4.4,3.7-8.1,9.5c-1.7,2.6-0.2,5.1,2.1,6.1c-3,2.9-5.9,5.9-8.9,8.9c-3.5,3.7,0.1,9,4.7,8.1
					c3.3-0.6,6.4-1.8,9.2-3.2c-5.1,5.6-10.1,11.3-14.8,17.3c-2.1,2.7-1.8,7.5,2.2,8.3c5.3,1.1,9,1.7,13.4-2.2
					c-6.9,7.8-14,15.3-21.1,22.9c-3.7,3.9,0,9.7,5,8.7c8.3-1.7,14.7-6.2,20.9-11.1c-5.1,7.1-10.7,13.9-16.6,20.6
					c-4.8,5.4,2.3,12,7.8,7.8c3.6-2.8,7.3-5.3,11.1-7.7c-9.1,8.1-20.7,17.1-23.3,19.4c-4.3,4,0.2,10.8,5.5,9.5
					c7.9-2,14.8-6.8,21.8-11.1c-5.5,5.6-11.4,10.9-17.7,15.9c-5.1,4,1.4,11.9,6.8,8.8c1.6-0.9,6.8-4.7,12.1-8.1
					c-1.6,1.9-3.2,3.9-4.9,5.8c-4.4,4.9,1.1,11.6,6.8,8.9c1.9-0.9,3.7-1.8,5.6-2.6c-0.8,4.9,5.4,9.7,9.3,5.1c4.4-5.2,6.1-9.1,6.2-16
					C297.5,773.2,294.9,771.3,292.1,771.1z"/>
			</g>
		</g>
		<g>
			<g>
				<path d="M1300.4,248.9c12.2-12.5,3.9-35.1-10.5-44.7c-22.8-15.2-61.9-13.1-80.4,7.9c-0.3,0.3-0.5,0.6-0.6,1
					c-6-16.1-15.2-30.9-27.9-43.4c0.4-0.1,0.7-0.2,1-0.5c11.3-12.5,16.3-33.2,12.6-49.6c-3.1-13.7-13.2-33.5-30.2-29
					c-1.7,0.5-2.4,2.8-1.1,4.1c9.7,9,17.8,13.7,21.3,27.7c3.8,15.4-1.8,30.5-5.8,45c0,0.1,0,0.2,0,0.3c-1.4-1.3-2.7-2.6-4.2-3.8
					c-18.4-15.5-38.3-20.1-57.1-17.1c10.3-7.7,10.2-25.8,4.9-36.4c-5.8-11.7-21.5-28.5-36-24.5c-2.1,0.6-2.4,2.9-1.2,4.4
					c6.5,8.4,18.1,10.7,24.9,19.7c8.8,11.5,4.4,22.2,1.2,34.4c-0.3,1.3,0.2,2.5,1.2,3.2c-29.5,6.9-55.6,32.4-67.4,63.7
					c-19.5,51.7-36.4,132.6,0.3,180.9c-0.5,0-1,0.3-1.3,0.7c-5.5,9-5.2,21.9-7.8,32.2c-2.4,9.4-8.9,19.1-5.7,28.8
					c1.1,3.4,5.2,4.5,7.8,2.1c12.2-11.7,31-26,36.2-42.6c0.7-2.2-1.8-3.8-3.7-2.8c-7.7,4.1-12.8,11.4-18.6,17.8
					c-3.8,4.1-7.6,8.2-11.6,12.1c1.1-3.3,2.5-6.5,3.2-9.1c1.6-5.3,2.7-10.7,3.6-16.1c1.2-6.8,2.3-13.8,0.1-20.3
					c2.4,2.8,6.6-0.9,5-3.9c-5.9-10.9-10.1-21.9-13-32.9c19.4,19.4,50.3,32.8,76.1,24.1c2.1-0.7,2.7-4.5,0-4.9
					c-13-2-25.8-2.4-38.4-6.2c-15.9-4.8-28.9-14.6-40.5-26.1c-2.1-12.2-2.7-24.5-2.2-37c25.4,36.8,85.7,49.1,126.2,41.5
					c2.8-0.5,2.5-4.7,0-5.4c-24-6.4-49.3-4.8-73.5-11.5c-21-5.8-38.1-18-52.1-33.9c1.3-16.6,4.3-33.3,8.1-50.4
					c13.4,20.2,36.5,33.1,58.3,42.5c24.8,10.7,57.5,21.3,84.8,18.3c2.3-0.3,4-3.7,1.3-4.9c-21.6-9.6-46.8-10.9-69.4-18
					c-27.9-8.7-49-24.2-72.3-41.1c-0.7-0.5-1.4-0.4-2-0.1c6.2-26.6,16.2-52,36-71.5c24-23.8,57.1-24.1,84.6-6.5
					c51,32.8,51.8,105.4,28.7,154.5c-11.2,23.7-29.1,44.9-49.9,60.8c-26.2,20-51.2,18.8-81.4,12c-3.1-0.7-6.3,3.4-3.4,5.8
					c20.7,17.2,52.1,10.6,74.4,0.1c28.5-13.4,50.5-41.4,65.5-68.2c2.3-4.1,4.3-8.2,6.2-12.5c6.6,6.4,17,11.6,29,15.3
					c14,10.1,27.6,22.5,9,33.8c-9.1,5.6-22.1,5.7-31.6,1.5c-8.4-3.7-11.4-12.1-17.4-18.3c-1.7-1.7-4.8-0.9-5.4,1.4
					c-3.1,12,8,23,18.4,27.4c14.8,6.2,31.4,4,44.8-4.7c12-7.7,11.5-22.3,5.5-33.5c-0.6-1.1-1.3-2.1-2-3.1
					c37.4,4.9,78.9-5.4,77.8-42.7C1332.1,279.1,1317.3,257.3,1300.4,248.9z M1213.6,217.3c17.9-9.1,33.4-15.3,53.9-11.4
					c8.8,1.6,16.9,6,23.6,11.8c10.6,9.1,3.8,18.8-0.7,27.9c-23.3-5.1-57.5-0.7-73.3,18c0.4-15.7-1.8-31.4-6.7-46.2
					C1211.3,217.8,1212.4,217.9,1213.6,217.3z M1264.7,328.9c-20.9-0.2-37.2-10.4-56.3-16.6c-0.2-0.1-0.4-0.1-0.7-0.1
					c5.3-14.2,8.5-29.2,9.3-44.2c0.6,0.4,1.4,0.5,2.2-0.1c15.4-11,36.2-13.6,54.7-14.2c24.2-0.8,40,17.8,46.8,38.9
					C1330.7,323.6,1283.2,329.1,1264.7,328.9z"/>
			</g>
		</g>
		<g>
			<g>
				<path d="M594.8,328.4c3.6,8.9,9,16.9,15.5,24c-3.5,2.4-6,6.7-6.7,10.6c-0.9,4.7-2,14.5,4.2,16.2c5.7,1.6,6.6-4.6,6-8.8
					c-0.4-2.7,0.1-5.8,1.1-8.3c0.5-1.2,1.1-2.3,1.8-3.5c7.7,7.1,16.5,13.2,25.6,18.4c-8.6,6.4-9.1,23.2,0.1,29.2
					c3.4,2.3,7.6-0.8,7.8-4.4c0.2-4.4-5-11.6-0.9-15.4c2.8-2.6,5.3-1,8.2-1.6c2.4,1.1,4.9,2.2,7.3,3.2c2.8,1.2,5.7,2.3,8.5,3.4
					c0.3,0.4,0.7,0.7,1.2,1c2.2,1.3,3.4,3.8,3,6.3c-0.3,2.1-1,4-0.7,6.1c-0.4-2.6-0.2-1.7-0.9,0c-0.3,0.7-0.4,1.3-0.4,2.1
					c-0.1,1.5,1,2.5,2.3,3c1.5,0.6,3.7,0.3,5.1-0.6c0.7-0.5,3-1.4,0.6-0.6c0.9-0.3,1.7-0.7,2.4-1.4c2.2-2.6,3.6-6,3.4-9.5
					c0-0.3-0.1-0.6-0.1-0.9c4,1.2,8,2.4,12,3.3c-5.4,6.5-6.6,16.6,0.8,22.7c5.1,4.2,11.3-0.9,8.8-6.8c-2.4-5.6-1-8.7,4-11.7
					c0.5-0.3,1-0.7,1.4-1.2c9.6,1.5,19.3,2.2,29,1.7c1,0.7,2.2,0.9,3.3,0.8c0.2,0.2,0.3,0.3,0.5,0.5c5.2,3.6,0.8,7.5,1,12.3
					c0,1.1,0.6,2.3,1.6,2.8c6.5,3,12.4-4.8,12.3-10.7c-0.1-2.6-0.8-5.2-2.1-7.4c4.5-0.8,9.1-1.8,13.7-3.1
					c28.2-8.3,56.3-23,74.1-47.2c29.1-39.5,22.3-89.4-6.7-123.5c4.1-1,7.2-3,11.8-5.4c13.2-6.9,27.5-10,41.1-1.6
					c16.1,9.9,25,24.9,38.1,37.7c1.5,1.5,4.4,0,3.7-2.2c-7-21.3-25.4-46.1-49-50.5c-17-3.2-40.1,1.3-50.6,16.7
					c-9.7-10-21.3-18.3-34.7-24.2c2.4-3,3.4-6.7,5.5-10.4c3.9-6.9,9.1-13.9,16.1-18.1c12.6-7.6,25.2-7,39.1-9.3
					c2.6-0.4,2.6-4,0.7-5.2c-15-9.8-35.4-2.8-48.7,6.9c-7.9,5.8-21.5,21.5-19.7,33.3c-8.7-3.3-17.5-5.7-26.6-7.4
					c11.7-29.6,7.9-92.3-25.9-103.9c-13.3-4.6-25.1-1.3-33.5,9.9c-1.4,1.9-2.3,4.6-2.4,7.2c-6.2-2.7-13.3-4.4-21.8-5.2
					c-28.9-2.7-41.7,11.7-45.8,39.5c-1.1,7.5-2.3,16.2-0.8,24c-14.6-7.4-35.9,1-39.5,18.2c-2.5,12,5.1,22.5,13.8,29.5
					c5.2,4.2,10.6,7.9,16,11.9c0.3,0.2,0.5,0.4,0.8,0.6c-7.3,5.8-12.9,12.6-15.6,20.7c-0.7,2.2,2.5,3.4,3.7,1.5
					c13.2-21.5,48.2-34.1,75.6-40.5c-21.9,54.6-28.1,129.2-3.6,183.8c-3.2-1-6.3-2-9.4-3.2c-0.8-0.4-1.6-0.8-2.4-1.1
					c-0.4-0.2-0.9-0.2-1.3-0.3c-14.4-5.7-29.7-12.6-42.9-22.1c0-0.5,0-1-0.2-1.5c-11.7-41.2,2.2-98,20-136c1.3-2.7-2.6-5-4-2.3
					c-18.9,36.8-37.5,85.9-28.8,128.9c-4.6-4.6-8.7-9.7-12-15.3c-14.2-24.2-15.9-55.3,5.4-76c5-4.9-2.7-12.5-7.6-7.6
					C585.8,271.1,584,301.5,594.8,328.4z M645.9,174.6c6.8,8.9,15.7,16.1,22.5,25.1c0.4,0.6,1,1,1.6,1.3c-10.1,3.5-20.7,7.9-30,13.4
					c-0.7-0.4-1.4-0.6-2.1-0.6c-0.3-0.8-1.3-1.5-3-2.2c-1-0.8-2.1-1.5-3.1-2.3c-3.1-2.3-6.2-4.6-9.2-6.9c-6-4.5-13.3-10.4-12.9-18.8
					c0.9-19.2,21.5-16.8,33.5-9.4C643.9,174.8,644.9,174.9,645.9,174.6z M721,129.5c2,4.6,13.9,51.3,9.3,52
					c-2.8,0.5-3.5,3.5-2.4,5.7c-12,0.9-24,3.1-35.7,6.6c-4.6,1.4-9.8,2.9-15.2,4.7c0.2-0.7,0.2-1.5-0.1-2.5
					c-3.9-11.1-12.9-16.2-20.1-25c-9.3-11.3-11.7-57.6,10.2-62.2C686.3,104.9,712.4,109.9,721,129.5z M760.4,188.1
					c-7.2-0.9-14.5-1.3-21.9-1.3c6.4-9.4,0.3-38.1-1.4-44.4c-4.5-16.7-11.3-28.3-22.1-35.6c2.3-9.6,8.2-14.4,17.8-14.3
					c9,1.6,15.9,6.1,20.5,13.5c6.2,10.2,10.2,21.8,10.8,33.8C764.8,151.8,767,176.6,760.4,188.1z M732.1,294.2
					c1.1-18.6,0.9-38.4,7.6-56c5.4-14.3,14-26.6,19.9-40.5c11.2,1.3,22.2,4,32.7,8.3c55.4,23,91.5,94.4,45.4,144.8
					c-24.2,26.5-56,40.2-89.2,42.6C731.8,362.8,730.1,328.8,732.1,294.2z M700.9,389.5c-7.3-33.3-16.7-64.1-15.4-98.9
					c1.2-31.3,7.7-60.3,17.3-89.8c1.8-0.4,3.6-0.7,5.3-1c14.5-2.6,29.5-3.8,44.3-2.8c-24.2,29.2-28.9,66.7-30.3,103.5
					c-1.2,31.8,0.1,65.1,15.6,93.3C725.4,393.8,713,392.3,700.9,389.5z"/>
			</g>
		</g>
		<g>
			<g>
				<path d="M578.3,225.9c6.4,11,16.6,10.9,27.8,10.9c2.1,0,3.5,2.8,1.8,4.3c-7.3,6.6-17.4,5.4-25.7,0.7c1,2.9,2.1,5.7,3.4,8.4
					c2.7,5.6,7.4,10.2,8.8,16.3c0.4,1.9-1.3,4.3-3.5,3.5c-13.5-5.6-19.3-27.5-21.1-40.6C569,224.5,575.4,220.9,578.3,225.9z"/>
			</g>
		</g>
		<g>
			<g>
				<path d="M1199.9,391.1c-6.9-1.1-14.4,3.6-21.1,5.4c-7.8,2.2-16.7,1.7-23.7,5.9c-1.1,0.6-1.2,2.5,0,3.1c7.3,3.6,15.4,1.5,23-0.3
					c7.2-1.7,19.3-4.7,22.7-11.9C1201.2,392.5,1201,391.3,1199.9,391.1z"/>
			</g>
		</g>
		<g>
			<g>
				<path d="M1303.4,347.1c-5-5.1-10.9,1.1-15,4.1c-7.1,5.2-17.3,8.3-23,15.1c-0.8,1-0.6,2.5,0.8,2.9c6.1,1.7,12.1-1,17.5-3.7
					c3.4-1.7,6.5-4,9.4-6.3c3-2.3,5.6-6.1,9.1-7.6C1304,351,1304.9,348.7,1303.4,347.1z"/>
			</g>
		</g>
		<g>
			<g>
				<path d="M1321.5,347.9c-1.1-1-2.5-1.1-3.6-0.4c0.2-0.1,0.4-0.3,0.5-0.4c-0.5,0.1-1,0.4-1.4,0.8c-1.1,1-2.1,2-3.2,3.1
					c-2.1,2.1-4.4,3.9-6.7,5.6c-2.3,1.7-10.5,5.2-8.1,9.3c2.6,4.4,9.5-0.9,12-2.7c4.3-3.1,9.2-7.4,11.2-12.4
					C1322.7,349.9,1322.3,348.5,1321.5,347.9z"/>
			</g>
		</g>
		<g>
			<g>
				<path d="M1323.1,233.2c-1.4-1.6-3.5,0.4-2.7,2.1c2.1,4.3,3.4,8.5,4.3,13.2c1,4.7,0.3,9.4,1.8,14c0.4,1.2,1.8,1.3,2.5,0.3
					C1335.5,254.1,1329.4,240.4,1323.1,233.2z"/>
			</g>
		</g>
		<g>
			<g>
				<path d="M1333.7,220.2c-3.1-6.2-7.3-12.1-12.8-16.4c-1.4-1.1-4,0.3-2.8,2.1c3.4,5.1,6.9,9.9,9.7,15.4c2.7,5.4,3.5,12.2,7.3,16.9
					c0.8,1,2.5,0.4,2.8-0.7C1339.5,231.7,1336.3,225.4,1333.7,220.2z"/>
			</g>
		</g>
		<g>
			<g>
				<path d="M772.4,97.6c20,4.2,44.1,25.1,39.5,47.7c-0.3,1.3-2.3,1.6-2.9,0.4c-4.2-8.2-6.8-16.7-12-24.4
					c-6.1-9-15.7-15.8-25.7-19.9C769,100.4,769.8,97,772.4,97.6z"/>
			</g>
		</g>
		<g>
			<g>
				<path d="M783.1,125.4c5.8,3.7,14.5,11.5,13.5,19.3c-0.2,1.3-1.6,2.2-2.7,1.1c-2.4-2.4-3.6-6-5.4-8.8c-2.1-3.3-4.6-6.2-7.6-8.7
					C779.4,126.9,781.4,124.3,783.1,125.4z"/>
			</g>
		</g>
		<g>
			<g>
				<path d="M628.7,128.1c1.1,0,1.9,1.5,1,2.3c-9.7,8.4-21.2,13.3-30.3,22.9c-10.6,11.2-15,25-21.7,38.5c-0.9,1.9-3.7,0.9-3.8-1
					C572.7,165.4,601.7,128,628.7,128.1z"/>
			</g>
		</g>
		<g>
			<g>
				<path d="M585.6,214c0.8-4.7,2.4-9.7,5.3-13.6c0.9-1.2,3.4-1,3.2,0.9c-0.4,3.8-1.4,7.5-2,11.3c-0.6,3.7,0,8.6-2.8,11.4
					c-0.7,0.7-2,0.8-2.7,0C584,221,585,217.5,585.6,214z"/>
			</g>
		</g>
		<g>
			<g>
				<path d="M423.2,287.7c-0.2-7.2-10.4-7-11,0c-1.2,13.9-8,24.1-17.6,32c7.1-23.9-2.5-52-15.9-73.3c13.7,8.1,25.9,17.7,35.7,29.1
					c3,3.6,7.5-1,6-4.6c-11.9-27.4-46.7-39.6-72.4-50c-1.1-0.5-2.3-0.9-3.5-1.3c0.3,0,0.5,0,0.8,0c17.8-2.6,34.8-18.3,48.3-29.4
					c11.6-9.5,20-21.7,19.4-37c-1.2-30.5-40-25.1-59.5-11.9c2.4-10.8,3.2-21.7,2.1-32.3c-3.2-31.3-26.1-38.4-53.5-33.3
					c-15.6,3-29,11.2-39.5,22.4c-10.1-16.1-43.9-28.3-54.8-5c-16.3,34.9,1.3,69.4,17.5,100c2.8,5.2,10.4,0.6,7.9-4.6
					c-9.4-19.3-21.2-36.1-21.1-58.1c0-12.3-2.4-29.8,9.3-38.5c13-9.8,28,1.3,36.1,10.3c0.3,0.3,0.7,0.6,1,0.7
					c-7.9,9.8-13.7,21.4-17,33.5c-3.8,14-5.5,47.3,6.9,61.3c-3.6-0.4-7.2-0.7-10.8-1c-10.9-0.8-22.5-1-34,0
					c-4-36.7-31.9-74.1-69.5-82c-1.9-0.4-4.1,1.7-2.8,3.6c9.2,12.7,25.8,17.7,37.5,28.1c14.6,13,23.7,32.1,28.2,51
					c-9.3,1.2-18.4,3.1-27.1,6.2c-0.2-16-15.5-28.7-27-38.1c-13.9-11.3-35.4-22-52.3-11.1c-2.4,1.5-1.4,5,1.4,5.2
					c19.1,0.9,32.6,4.3,47.8,16.3c10.8,8.5,18.4,18.1,25.4,29.6c-7.3,3.1-14.3,7-20.6,12C120,237,106,265.4,108,297.1
					c1.8,27.6,19,52,42.1,66c19.9,12.1,45.7,14.4,70.4,14c-2.1,1.4-3.5,3.9-4.9,6.2c-2.1,3.5-5.2,7.9-4.7,12.1
					c0.4,3.2,3.4,5.4,6.5,3.7c3.8-2.1,5.5-6.8,7.1-10.6c1.4-3.4,3.7-7.5,1.5-11.1c-0.1-0.1-0.2-0.3-0.3-0.4
					c9.1-0.3,17.9-0.9,26.1-1.5c1.1,2.8,3.3,5,4.8,7.8c2.7,5,3.8,12.3,2.9,17.9c-0.6,3.3-4.1,6.8-3.2,10.1c0.9,3.2,4.6,3,7.1,2.5
					c13-3,9.5-28.8,0.5-39.4c2.1-0.2,4.1-0.5,6.2-0.7c1.6,0.4,3.4,0.2,4.9-0.7c0.7-0.1,1.4-0.2,2.1-0.3c-0.4,0.8-0.8,1.6-1.1,2.4
					c-0.8,2.3-0.6,4.9-0.3,7.2c0.4,2.9,3.4,4.7,5.4,5.1c1.8,0.4,4.4-0.5,4.7-2.7c0.1-0.5,0.1-0.9,0.2-1.4c0.4-2-0.5-3.8-0.2-5.6
					c0.4-2.5,2.2-4.1,2.9-6.4c0.1-0.2,0-0.4,0-0.6c9.6-1.7,19-3.8,28.4-6.3c0.1,0.3,0.2,0.6,0.4,0.9c3.7,6.3,9.3,9.8,10.3,17.7
					c1,8.1-5,13.5-6.3,20.9c-0.4,2,0.9,4.4,3.2,4.3c20.5-1,19.5-35.7,4.4-45.8c0.3-0.2,0.7-0.5,1-0.8c0.2-0.2,0.4-0.5,0.6-0.8
					c5.3-1.6,10.6-3.3,15.8-5.1c-1.6,6.2-2.8,15.1,3.1,15.1c6.8,0,5.3-11.6,4.2-17.7c4.1-1.5,8.1-2.9,12.2-4.5
					c4.5,5.3,9.5,8.5,11.6,15.9c2.1,7.6-3.2,14-2.4,21.4c0.2,1.9,1.7,3.2,3.7,2.8c11.2-2.3,11.6-18.4,9.4-27.1
					c-1.6-6.2-6.5-13.4-12.8-16.9C399.6,333.5,424,317.1,423.2,287.7z M252.6,139.3c4.9-24.5,23.8-42.6,46.5-51
					c12.5-4.6,31.2-7,40.4,6.2c9.1,13,5.8,33.4,2.4,47.5c-5.6,23.1-22.1,39.5-32.3,60.1c-2.2,4.5,3.2,9,7,5.4
					c15.7-15.1,28.3-35.9,34.8-57.8c8.6-0.2,16.4-4.4,24.7-7.4c21.1-7.6,33.2,10.4,22.3,28.5c-12.6,21-39.9,27-56.5,43
					c-1.7,1.7-1.2,3.7,0.2,4.9c-26-9.8-53.2-16.1-80.7-19.7c-0.2-0.3-0.4-0.6-0.7-0.9C247.5,185.9,249.4,155.4,252.6,139.3z
					 M268.4,361.7c-5.1,0.7-10.1,1.3-15.2,1.7c-28.6,2.7-59.3,3.2-86.9-5.5c-30.8-9.8-47.7-41.8-47.3-72.5
					c0.5-32,25.2-58.7,53.3-70.3c21-8.6,45.1-8.8,68-6.9c0,0.4,0.1,0.7,0.4,1.1C277.4,251.4,286.8,309.9,268.4,361.7z M323.6,350.5
					c-13.9,4-28.1,7.1-42.4,9.4c9.5-28.2,10.3-57.8,4-87.1c-3.5-16.4-15-52.9-33.3-63.3c2.2,0.2,4.4,0.5,6.6,0.7
					c15.4,1.7,32.1,4.6,49,8.7c8.2,18.6,16.6,36.3,21.1,56.4C333.2,295.8,336.4,331.3,323.6,350.5z M380.2,328.8
					c-0.1,0.2,0,0.3,0,0.5c-11.8,6.3-25,10.7-36.5,14.9c-1.5,0.5-3,1-4.5,1.5c6.7-18.4,5.3-41.5,3.2-59.3
					c-2.6-22.3-10.1-46.1-23.6-64.6c16.3,4.6,32.5,10.4,47.5,17.8c4.4,11.9,9.9,23.3,14.1,35.3C387.2,294.3,385.8,309.3,380.2,328.8
					z"/>
			</g>
		</g>
		<g>
			<g>
				<path d="M456.3,264.3c-9,4.4-17.6,4.6-27.3,5.4c-5.4,0.4-6.6,7.8-1.3,9.5c7.8,2.4,16.3,1.5,24.1-1c-1.7,4.8-4.7,9.2-8.5,12.9
					c-5.6,5.5-14,5.7-19.4,10.9c-1.6,1.6-1.1,4.2,0.7,5.4c8.6,5.5,20.2-2.8,26.7-8.4c8.5-7.4,13.2-18.7,13.6-29.8
					C464.9,264.6,459.9,262.5,456.3,264.3z"/>
			</g>
		</g>
		<g>
			<g>
				<path d="M210.8,80.2c-17.2-5.9-44.9,14.6-49.9,30.6c-0.6,1.9,1.9,4.2,3.7,2.8c7.5-5.7,13.4-12.9,21.4-18.1
					c8-5.3,18.1-6.6,25.6-12.5C212.6,82.2,211.8,80.6,210.8,80.2z"/>
			</g>
		</g>
		<g>
			<g>
				<path d="M211.8,66.3c-4.9,0.6-9.4,2.7-14,4.5c-5.2,2-10.9,2.9-16,5.2c-1.3,0.6-1.1,3,0.4,3.2c9.5,1.3,24.2-2.6,30.8-9.8
					C214.1,68.3,213.5,66.1,211.8,66.3z"/>
			</g>
		</g>
		<g>
			<g>
				<path d="M379.7,110.7c-4.4-3.3-8.7-6.5-13.8-8.5c-1.7-0.6-2.4,1.6-1.6,2.7c3.3,4.1,7.5,7.4,11.4,10.9c3,2.7,6.5,7.2,10.8,7
					c1,0,2.1-0.9,2-2C388.2,116.1,383.2,113.3,379.7,110.7z"/>
			</g>
		</g>
		<g>
			<g>
				<path d="M396.5,108.8c-1.4-2.9-5.3-4.2-8-5.8c-3.3-1.9-6.4-4.1-9.3-6.6c-1.9-1.6-5.4,0.5-3.7,2.9c2.5,3.5,5.3,6.3,8.7,8.9
					c2.8,2.1,7.5,5,11.1,3.6C396.6,111.3,397.2,110,396.5,108.8z"/>
			</g>
		</g>
		<g>
			<g>
				<path d="M412.4,195c-1.8-2.1-5.6,0.1-4.7,2.7c2.5,6.9,5,13.5,5.9,20.8c0.7,6.2-1.4,12.7,0.3,18.7c0.6,2.1,3.8,3.4,5.4,1.4
					C428.3,227.4,420.8,204.8,412.4,195z"/>
			</g>
		</g>
		<g>
			<g>
				<path d="M432.1,194.1c-2.4-6.1-4.7-12.2-7.9-18c-1-1.7-3.2-0.4-2.9,1.2c0.9,6.3,2.6,12.4,4.4,18.5c1.4,4.9,2.3,10.7,6.4,14.1
					c1.1,0.9,3,0.7,3.4-0.9C436.7,203.9,434,199,432.1,194.1z"/>
			</g>
		</g>
		<g>
			<g>
				<path d="M420.3,612c-12.7-4.3-27.2,0.5-38.9,5.9c-6.5,3-24,9.9-26.6,18.7c-6.9-3.7-14.2-6.5-22-8.3c10.8-13.6,19.4-26.4,34-36.9
					c16.2-11.7,35.5-13.9,52.7-22.8c1.8-0.9,1.3-3.8-0.6-4.2c-36.9-9.4-80.6,29.6-95.6,60c-0.4,0.8-0.5,1.5-0.5,2.3
					c-4.1-0.5-8.3-0.8-12.6-0.8c11.1-26.5,10.9-60.2-0.7-86.1c-11.9-26.3-40.7-13.3-53.2,4.7c-0.3,0.4-0.4,0.8-0.4,1.2
					c-13.8-9.1-32-12.4-46.9-6.3c-20.6,8.4-34,25-29.3,47c-23.2-4.5-31,19.7-30,41.4c1.2,24.5,23.1,48.6,48.7,44.6
					c5.6-0.9,3.5-8.5-1.2-9c-17.7-2-29.6-10-35.6-27.1c-3-8.6-2.1-18.2-0.5-27c2.1-11,12.1-13.3,21.5-13.9
					c5.3,12.8,15.1,25.1,22.2,36.1c6.1,9.4,11.3,20.3,22.4,23.2c-5.3,3.4-10.6,6.9-15.7,10.6c-14,10-27.4,20.6-38.7,32.9
					c-0.6,0.2-1.2,0.6-1.6,1.3c-0.2,0.4-0.5,0.9-0.7,1.3c-7.9,9.1-14.6,19.2-19.5,30.7c-1.4,3.3,3.2,6.3,5,2.9
					c2.3-4.4,5.1-8.8,8.2-13.2c-1.2,8.1-1.1,16.7,0.9,24.3c-4.4,0.2-8,6.1-4,9.7c12.4,10.9,26.7,19.2,41.9,25.5
					c-0.1,0.1-0.1,0.2-0.2,0.3c-1.9,3.3-3.9,6.6-4.4,10.4c-0.8,6.3,4,11.7,10.5,10.4c4.8-1,5.3-6.2,0.8-7.9c1.2,0.4,0.1,0.3,0-1.2
					c-0.1-1.6,1.3-3.6,2-4.9c0.5-1,1.1-2.1,1.7-3.2c8.3,2.9,16.9,5.2,25.6,7.2c0.1,1.8,0,3.5-0.4,5.3c-0.8,3.3-3.4,6.1-3.2,9.6
					c0.2,2.9,2.5,4.5,5.4,4.1c5.1-0.9,7.4-7.8,7.8-12.3c0.1-1.5,0.1-3.1-0.1-4.7c0.6,0.1,1.3,0.2,2,0.3c1.8,1.9,4.5,2.2,6.6,1.1
					c7.4,1.2,14.8,2.2,22.3,2.9c-0.8,3.9,0.1,8.3,1.8,11.8c2.2,4.7,10.4,9.2,14.7,4.5c1-1.1,1.1-2.4,0.5-3.7
					c-1.1-2.5-3.5-4.5-4.9-6.9c-0.9-1.7-1-3.2-0.8-4.8c10.2,0.7,20.2,1.1,30.1,1.2c0,0.4,0,0.8,0,1.3c0,1.4-0.2,2.6-0.6,4
					c-0.9,3.1-3.6,5.9-3.2,9.2c0.3,2.3,1.8,4.5,4.4,4.4c7.2-0.4,9.5-9.5,9.2-15.4c-0.1-1.1-0.3-2.2-0.6-3.4c1.3,0,2.7,0,4,0
					c24.8,0,48.3-0.5,63.7-22.2c13.9-19.5,10.2-48.6,6.4-70.5c-5-29.2-20.5-52.7-42.3-66.8c5.1-6.6,20.7-11.7,27.8-14.4
					c10.4-3.9,21.7-4.5,31.6-9.5C423.1,615.7,422.3,612.7,420.3,612z M204.2,716c-0.4,16.6-2,33.7,1.6,49.9
					c-9.5-4-18.9-8.7-28.3-13.9c-2-6.5-4.8-12.6-5.6-19.7c-0.9-8.6,0.8-17.1,3.2-25.3c9.5-10.7,20.9-21,33.4-30.2
					C203.4,688.8,204.5,702.8,204.2,716z M260.7,548.9c7-5.4,13.1-11.3,21.6-14.4c20-7.4,24.8,26.8,25.9,37.3
					c1.9,18.6-4.6,36.2-6.2,54.4c-3.3,0.3-6.5,0.7-9.9,1.3c-6.3,1.1-12.4,2.7-18.4,4.6c4.9-23.9,10.3-53.5-4.7-73.9
					c-2.5-3.4-5.4-6.4-8.7-9.1C260.5,548.9,260.6,548.9,260.7,548.9z M197.1,600.6c-7-11.5-14.5-24.9-3.6-38.8
					c8.5-10.8,24.9-17.6,38-15.3c20.5,3.5,36.2,19.8,37.1,40.4c0.2,5.7,0,43.4-4.5,46c-1.1,0.6-1.3,1.9-0.9,2.9
					c-9.8,3.8-19.1,8.6-28.2,13.9c0-1.9-1.1-3.8-3.6-4.2C217.2,642.9,204.3,612.5,197.1,600.6z M240.7,753.4
					c1,7.4,1.6,16.9,3.5,25.4c-8.8-2.2-17.4-4.9-25.9-8c-4.3-13-3.9-26.1-3.8-39.6c0.2-18.8-2.4-39.8,5.2-57.5
					c0.7-1.7,0.4-3.2-0.3-4.3c11-7.2,22.7-13.5,34.7-18.5c-11,17.2-14.8,37.8-16.2,58.1C236.9,723.8,238.7,738.7,240.7,753.4z
					 M391.3,704.3c5.1,21.7,6.9,47.5-4.4,67.6c-13.1,23.5-56.3,16.5-79.1,15.7c-18.2-0.6-35.3-2.6-51.9-6
					c-0.1-6.9-3.5-22.2-3.8-23.8c-2.4-13.9-3.6-28-3.9-42.1c-0.5-24.6,6.5-45.7,16.1-67.9c0.1-0.3,0.2-0.6,0.2-1
					c10.6-3.8,21.2-6.5,31.6-7.9c-7.7,25.2-9.3,52.4-8.4,78.5c0.6,18.9,0.3,54.9,14.7,68.5c4.1,3.8,11.7-1.4,8-6.2
					c-12.6-16.5-11.5-49.8-12.3-69.5c-0.9-24.4,2.9-48.1,6.2-72.1C344.3,635.2,379.1,652.6,391.3,704.3z"/>
			</g>
		</g>
		<g>
			<g>
				<path d="M157.8,756c-4.7-4.1-11.1-4.7-17-6.5c-4.9-1.5-11.3-3.6-16.4-6.6c4.5-1.2,11.3-3.3,12.3-3.6c4.1-1.5,7.1-2.4,9.1-6.4
					c0.4-0.7,0.2-1.6-0.5-2c-6.2-3.3-13.8,0.7-20,2.6c-4.9,1.5-12.3,2.1-13.8,7.9c-0.4,1.6,0,3.4,1.2,4.6c5.4,5.1,13.5,8,20.3,10.7
					c7.3,2.9,16.7,6.5,24.3,3C158.7,759.1,158.9,757,157.8,756z"/>
			</g>
		</g>
		<g>
			<g>
				<path d="M144.1,659.7c-6.3,8.3-10.6,17.1-13.5,27.1c-2.2,7.6-4.5,18.2-0.3,25.3c1,1.6,3.8,1.9,4.7,0c3.3-7,2-15.6,3.2-23.2
					c1.5-9.5,4.7-18.8,8.8-27.5C147.9,659.4,145.4,658,144.1,659.7z"/>
			</g>
		</g>
		<g>
			<g>
				<path d="M157,671.2c-1.6,3.3-2.3,6.8-3.2,10.4c-0.7,3.1-1.5,6.9-0.3,10c0.6,1.4,2.1,2,3.3,0.9c2.4-2.2,3.3-5.9,3.9-8.9
					c0.7-3.6,1.6-7.2,1.5-10.9C162.2,670,158.4,668.5,157,671.2z"/>
			</g>
		</g>
		<g>
			<g>
				<path d="M367.3,557.3c-4.8-4.7-12-5.5-18.4-6.8c-8.4-1.8-16.7-2-25.3-2c-1.5,0-1.9,2.5-0.4,2.7c7.1,1,14.1,2.8,21.1,4.4
					c7,1.6,14.4,5.7,21.6,5.1C367.5,560.5,368.6,558.6,367.3,557.3z"/>
			</g>
		</g>
		<g>
			<g>
				<path d="M355,529.3c-4.2-3-9.4-3.2-14.4-3.5c-5.4-0.3-11.1-0.5-16.3,1c-2.1,0.6-2.2,3.7,0,4.3c4.6,1.1,9.4,1.2,14,1.7
					c5.4,0.5,10.8,2,16.2,0.4C356.3,532.7,356.4,530.4,355,529.3z"/>
			</g>
		</g>
		<g>
			<g>
				<path d="M831.8,608.4c-14.2-20.9-33.2-31.8-53.6-35.1c0.7-1.3,1.4-2.6,2.1-4.2c4.2-8.2,10.4-15.1,17.7-20.7
					c13.9-10.6,30.2-9.2,46.5-10.7c2.6-0.2,3.9-3.7,1.4-5.1c-16.8-9.5-37.9-3.1-53,7c-9.2,6.1-22.1,20-23,32.7
					c-12.3-0.8-25,1-37.2,4.9c3.6-11.3-8-24.8-14.3-33.3c-7.4-10-19-21.8-32.5-19.8c-1.9,0.3-2.6,3.2-1.1,4.3
					c7.3,6,15.3,10.1,21.9,17.1c3.8,4,6.9,8.7,9.9,13.3c3.4,5.2,9.8,12.6,9.7,19.1c0,0.5,0.2,1,0.4,1.4
					c-22.3,8.5-42.7,23.8-56.8,42.9c-3.4,4.6-6.6,9.4-9.7,14.3c4.3-20-10.5-37.1-26.9-48.8c-23.7-16.8-54.6-25.7-79-5.9
					c-20.9,17-11.7,54.4-2.2,74.4c6.4,13.5,16.5,27.7,29.2,38c-21.7,3.9-43.8,22.2-37.9,45.3c3.2,12.5,11.3,21.1,23.9,24.2
					c12.6,3.1,33.6-4.4,43-13.1c-8.8,26.2-14.2,51.8-4.8,79c-0.1,0.2-0.3,0.3-0.4,0.5c-8.2,14.2-16,26.8-28.5,37.7
					c-3.2,2.8-0.7,8.7,3.5,8.5c16.4-0.8,42.4-2,50.2-19.5c63.2,15.5,137.7-15.5,180.9-60.9C857.7,747.2,870.6,665.6,831.8,608.4z
					 M608.4,745.1c-8.9-0.5-16.9,5-25.2,7.8c-14.6,5-28.8-2-30.9-17.8c-3.2-24.7,22.4-27.3,39.7-33.3c9.2,5.1,19.3,8,30.1,7.2
					c4.5-0.3,5-5.9,1-7.6c-21-8.7-37.9-14.1-52.2-33.3c-11.1-15-17.5-35-18-53.6c-1.9-61.1,107.8-24.8,99.3,27.6
					c-0.3,1.7,1,3.2,2.4,3.6c-14.9,25.9-25.7,54.1-36.1,82c-2.4,6.6-4.9,13.1-7.1,19.6C611,746.2,609.9,745.1,608.4,745.1z
					 M622.9,842c-7.7-2.4-10.9,9.5-3.3,12c0.9,0.3,1.8,0.6,2.7,0.8c-5.2,3.2-10,6.5-16.2,8.4c-4.3,1.3-8.8,2.1-13.3,2.5
					c7.2-7.9,13.5-17,17.7-26.7c2.5,0.5,5.5-2.1,5-5.1c-2.2-12.6-4.8-24.1-4.7-36.2c5.7,11.8,16.8,22.2,26.5,29.2
					c7.9,5.8,19.2,15.1,30.8,21C652.6,848.4,637.2,846.4,622.9,842z M690.6,846.2c-15.9-5.3-30.4-14-44.3-23.4
					c-15.1-10.2-22.7-24.5-34.4-37.2c0.1-0.7,0.2-1.3,0.3-2c2.2-11.1,6-22.1,9.9-32.9c14.6,18.1,35.1,32,54.8,43.7
					c22.2,13.3,54,30.2,80.4,28.8c0,0,0,0,0,0C736.9,834.7,713.9,842.7,690.6,846.2z M798.4,792.1c-11,11.5-24.2,21.5-38.8,29.9
					c0.9-1.2,0.8-3.1-0.8-3.9c-22.3-12-48.7-16.4-71.6-28.3c-23.3-12-42.3-29.1-63-44.5c0.9-2.6,1.9-5.1,2.8-7.7
					c5.2-14.6,10.8-29.2,16.9-43.5c41.5,48,111.4,72.3,173.3,74.2C811.6,777,805.3,785,798.4,792.1z M820.7,758.1
					c-35.3-0.8-69-8.3-101.4-22.2c-27.4-11.7-49.8-29.4-73-47.3c5.8-13.1,12-25.9,19-38.4c15.9-28.3,39-52.1,70-63.1
					c36.4-12.9,74,5.5,92.8,37.3c24.6,41.5,17.9,93.2-5.1,134.3C822.4,758.3,821.6,758.1,820.7,758.1z"/>
			</g>
		</g>
		<g>
			<g>
				<path d="M579.3,815.4c-2.1-5.9-6.8-10.6-10.3-15.7c-1.3-2-10.5-17.7-8.2-19.2c0.6-0.4,0.9-1,0.7-1.7c-0.1-0.2-0.1-0.4-0.2-0.6
					c-0.5-1.6-2.1-2-3.5-1.4c-7.1,3-2.1,14.1,0,18.9c3.6,8.5,9.1,19.8,18.6,22.7C578,818.8,579.9,817.1,579.3,815.4z"/>
			</g>
		</g>
		<g>
			<g>
				<path d="M581.9,786c-1.9-3.4-3.5-6.9-3.7-10.9c-0.2-4-6-4-6.2,0c-0.2,3.5,0.4,6.9,1.8,10.1c1.1,2.4,3.9,7.4,7.3,6.5
					C583.8,790.9,582.9,787.8,581.9,786z"/>
			</g>
		</g>
		<g>
			<g>
				<path d="M548.8,703.4c-4-8-6.5-14-6.2-23.2c0.3-7.8,1-14.9-2.2-22.1c-1-2.3-4.8-1.1-4.7,1.3c0.5,11.9-7.8,44.1,10.7,47.2
					C548.2,706.9,549.6,705.2,548.8,703.4z"/>
			</g>
		</g>
		<g>
			<g>
				<path d="M554.9,692c-0.4-2.7-0.9-5.7-1.7-8.4c-0.7-2.6-3.9-2.2-4.8,0c-1.4,3.3-0.8,7.7,0.9,10.7c0.7,1.2,2.2,1.8,3.5,1.4
					C554.5,695.3,555.1,693.6,554.9,692z"/>
			</g>
		</g>
		<g>
			<g>
				<path d="M637.7,521.5c-11-0.7-22,6.2-31.1,11.7c-9.4,5.7-18.7,13-24.7,22.2c-1,1.6,1,3.7,2.6,2.6c8.8-6,16.7-12.9,25.8-18.5
					c9.2-5.6,20.3-8.1,28.8-14.7C640.5,523.7,639.2,521.5,637.7,521.5z"/>
			</g>
		</g>
		<g>
			<g>
				<path d="M640.8,539.8c-5.8-1.7-12,1.8-17.2,4.2c-2,0.9-16.1,8.9-15,10.5c-0.7-1.1-2.7-0.8-2.6,0.7c0.5,5.7,5.9,2,8.7,0.4
					c5.1-2.8,10.2-5.3,15.6-7.4c4-1.5,8.2-2.1,11.3-5.2C642.7,542,642.2,540.2,640.8,539.8z"/>
			</g>
		</g>
		<g>
			<g>
				<path d="M1331.2,631.2c-7.8-9.9-18.7-12.6-30.2-12.4c17.6-15.3,27.1-39.6,8.3-59.8c-48.4-52-140.7,11.7-146,72.2
					c-13.9-8.5-28-16.1-41.2-23c-13.6-7.1-27.4-13.8-41.7-18.2c17.3-24.9-15.5-67.4-38.7-75.6c-1.9-0.7-3.4,1.6-2.5,3.2
					c6.6,11,16.8,19.2,24.2,29.7c9.5,13.2,8.4,26.6,11.1,41.1c-12.5-3.3-25.3-4.8-38.5-3.1c5.5-11-8.8-29.7-16-36.1
					c-15.1-13.4-40.1-17.1-59.1-12.2c-2.3,0.6-2.1,3.7,0,4.4c15.1,5.1,31.1,4.7,45.6,11.7c8.7,4.2,15.3,12.2,18.9,21
					c1.9,4.5,1.2,8.5,2.8,12.4c-2.5,0.5-4.9,1.2-7.4,1.9c-28.4,8.8-43.7,38.4-48.6,65.6c-5.7,31.4,1,69.7,18.9,96.2
					c4.7,7,10.5,13.3,16.9,19c-1.6,1.1-3.1,2-4.9,2.9c-3.9,2-8.6,1.2-12.2,3.6c-3.1,2.1-3.1,6.2,0,8.3c4.5,3.1,10.7,1,15.3-0.9
					c3.9-1.6,7.4-4,10.1-7.1c10.1,7.5,21.3,13.8,32.6,19.2c-0.6,1-0.9,2.2-0.8,3.4c0.7,5.3-1.9,8.6-5.9,11.5
					c-1.9,1.4-3.4,3.8-2.6,6.3c0.2,0.5,0.4,0.9,0.6,1.3c1,2.3,4,3.1,6.3,2.6c8.6-2.1,13.4-12.5,11.7-20.9c3.1,1.4,6.1,2.7,9.2,3.9
					c-3,1.7-6,4.4-6,7.9c0,1.9,1.4,4.3,3.5,4.6c2,0.3,3.4,0.2,5.2-0.9c1.1-0.7,2.2-1.3,3.2-2c2.5-1.6,5.3-2.6,7.6-4.4
					c0,0,0-0.1,0.1-0.1c13.3,4.7,27.5,8.6,42,11.1c0,0.1,0,0.2,0,0.3c0.5,2.7,1.9,5.3,2.5,8c0.6,2.7-0.2,5.4-0.1,8.1
					c0.1,5.3,7.2,7.4,10,2.7c2.6-4.4,2.4-11.7-0.1-17.2c5.1,0.6,10.1,1,15.2,1.2c-0.4,1.5-0.7,3.1-0.8,4.7c-0.1,1.7,0.2,3.4,0.4,5.1
					c0.3,1.9,1.7,2.9,2.9,4.1c2.2,2,5.9,1.2,6.7-1.8c0.3-1.1,0.8-1.6,0.8-2.8c0-1.2-0.1-2.4-0.1-3.6c0-1.2,0.2-2.3,0.4-3.4
					c0.6-0.2,1.2-0.5,1.8-0.7c0.9-0.3,1.5-0.9,1.8-1.5c7.5-0.3,14.8-1.2,22-2.6c1.1,0.5,2.4,0.6,3.5-0.1c0.5-0.3,0.9-0.7,1.4-1
					c1.1-0.3,2.2-0.5,3.3-0.8c0.1,2.1,0.8,4.1,1.3,6.1c0.7,2.6,0.9,5.3,1.4,8c1.2,6.2,10.6,4.5,10.7-1.5c0.1-4.8-1.7-11.4-5.4-15.1
					c20.5-7.2,38.6-20.4,51.9-41.7c3.6-5.8-5.1-10.6-9-5.2c-10,13.9-21.9,23.9-35.2,30.8c9.7-13.5,16.5-29.6,21.1-44.7
					c3.2-10.6,4.8-22,6.5-33.1c6.2,11.6,11.2,24.2,14.7,38.1c-0.8,1.1-1.1,2.6,0.3,3.7c5.6,4.5,12.3,5.9,19.1,7.9
					c5.5,1.6,10.9,3.3,16.4,4.9c-4.8,2.9-10.2,4.4-16.1,5.2c-8,1-16.5-1.5-23.6,3c-1.2,0.8-1.7,2.7-0.5,3.7c8,6.4,19.6,4.1,29.1,2.6
					c9.5-1.5,18.3-6.2,25-13.1c2.6-2.7,1.4-7.1-2.2-8.2c-7.3-2.1-14.6-4.3-21.9-6.4c-5.1-1.5-10.5-3.6-15.8-4.5
					c-1.5-19.3-7.8-36.6-17.1-52.2c16.4-0.1,34.7-6.4,49.4-11.7c15.7-5.7,29.7-15.7,37.4-30.7C1337.3,654.5,1338.2,640,1331.2,631.2
					z M1199.5,582.9c19.2-22,49.4-34.9,78.4-30.2c19.6,3.2,33.7,20.8,29.6,40.5c-3,14.3-21.5,22.8-32.9,29.1
					c-24.9,13.7-55.7,30.6-85,26.3c-6.6-4.8-13.3-9.3-20.2-13.6C1179.5,617.3,1185.6,598.9,1199.5,582.9z M1058.9,788.3
					c-19.2-8.9-37.3-20.2-52.1-35.2c-22.9-23.3-27.2-60.1-25.2-91.1c2.2-34.7,25.1-64,60.6-67.3c30.2-2.8,59.9,14.8,86,29.4
					c2.3,15.1,5,29.9,4.5,45.3c-0.6,18.8-11.1,37.5-19.9,53.5C1098.9,748,1080,769.2,1058.9,788.3z M1115,807.5
					c-10.6-2.3-21-5.4-31.1-9c-5.2-1.9-10.3-3.9-15.5-6c24.3-21.3,43.7-47.3,58.3-76.2c14.9-29.4,17.6-57.3,9.4-87.8
					c15.5,8.5,30.2,17.7,43.8,27.7c-0.3,0.8-0.6,1.6-1,2.4c-0.4,1,0.7,2,1.7,1.9c-0.2,29-2.9,55.6-14.8,82.9
					C1154.1,770.4,1134.4,787.1,1115,807.5z M1220.7,758.1c-6,19.7-18.2,33.9-30.3,49.3c-19.3,5.4-40.2,5.7-61,2.7
					c21.9-15.7,38.3-43.2,48.4-66.4c10.5-23.9,16.3-52.7,12.9-79.1c15.6,12.9,29.2,27.3,40.1,44
					C1230.6,724.9,1225.2,743.4,1220.7,758.1z M1300.3,680.4c-18.8,10.5-41.1,9.6-60.7,16.9c-9.6-13.6-21.6-25.8-34.8-36.8
					c28.6,0.1,61.7-19.9,84-33.2c0.6,0.5,1.4,0.8,2.2,0.8c14.6,0.3,33.2,0.2,34.3,19.5C1326.3,662.9,1312,673.9,1300.3,680.4z"/>
			</g>
		</g>
		<g>
			<g>
				<path d="M1227.3,533.3c-29.6-7.6-70-12.2-96.6,5.9c-2,1.3-0.7,4.2,1.6,3.8c16.5-3.2,32.2-6.7,49.2-7.1
					c15.1-0.3,30.2,1.7,45.3,1.6C1229.2,537.6,1229.7,533.9,1227.3,533.3z"/>
			</g>
		</g>
		<g>
			<g>
				<path d="M1200.9,547.6c-8.8-2-22.5-3.5-30.6,1.3c-1.5,0.9-1,2.9,0.4,3.4c4.5,1.6,9.2,1.1,13.9,0.9c5.2-0.2,10.5-0.1,15.6-0.7
					C1202.7,552.1,1203.7,548.2,1200.9,547.6z"/>
			</g>
		</g>
		<g>
			<g>
				<path d="M1308.6,714.9c-0.3-0.4-0.9-0.5-1.4-0.4c-6.5,2.1-7.5,12.7-10,18.3c-3.4,7.7-11.7,16.2-11.4,24.7
					c0.1,1.4,1.3,2.5,2.7,2.1c8.8-2.6,12.8-14.7,16.2-22.4C1307.4,731.4,1313.7,720.5,1308.6,714.9z"/>
			</g>
		</g>
		<g>
			<g>
				<path d="M1327.2,696.8c-0.3-2.3-4-1.7-3.9,0.5c0.1,4.7-0.3,9.3-1.1,13.9c-0.7,3.8-2.1,7.3-2.1,11.2c0,1.2,1.6,1.9,2.5,1
					C1328.7,716.9,1328.4,705,1327.2,696.8z"/>
			</g>
		</g>
		<g>
			<g>
				<path d="M168.3,266.9c-0.4-1.4-2.3-2-3.4-0.9c-2.7,2.9-4.6,5.1-8.5,6.6c-3.5,1.3-8.8,0.7-8.5-4c0.1-1-0.9-1.9-1.9-1.9
					c-3.9,0.2-4.7,4.3-3.8,7.5c1.2,4.1,5.4,6.4,9.4,7.1c4.2,0.7,9-0.5,12.3-3.3C166.9,275.6,169.4,270.8,168.3,266.9z"/>
			</g>
		</g>
		<g>
			<g>
				<path d="M214.6,255.1c-0.4-1.6-2.1-1.9-3.4-1.4c-4.3,1.9-6.6,7.2-9.8,10.5c-3.2,3.4-9.2,4.1-12.5,0.6c-1.7-1.8-4.8,0-4.1,2.4
					C190.3,284.9,218.5,270.6,214.6,255.1z"/>
			</g>
		</g>
		<g>
			<g>
				<path d="M209.3,298.1c-5.3,5.7-10.2,11-17.1,14.9c-9.8,5.6-21.9,3.1-31.6-1.1c-1.6-0.7-3.5,1.2-2,2.6
					c16.2,14.9,49.9,9.7,53.7-14.7C212.6,298.2,210.7,296.7,209.3,298.1z"/>
			</g>
		</g>
		<g>
			<g>
				<path d="M791.7,259.4c-0.6-1.6-2-3-3.8-2.9c-9,0.6-18,6.4-20.2,15.5c-0.8,3.4,3.4,4.8,5.3,2.2c3.4-4.6,7.5-8,12.9-9.3
					c1.4,2.1,2.9,4.2,5.1,5.4c0.9,0.5,2.3,0.1,2.5-1C794,265.9,792.8,262.5,791.7,259.4z"/>
			</g>
		</g>
		<g>
			<g>
				<path d="M828.8,253.9c-7.4-2.4-15.7,4.1-19.1,10.1c-1.7,2.9,1.8,6.7,4.8,4.8c3.4-2.2,6-5.3,9.9-6.5c2.7-0.8,7,1.5,8.1,4
					c0.4,0.9,1.7,1.6,2.4,0.6C839.2,261.4,834.5,255.8,828.8,253.9z"/>
			</g>
		</g>
		<g>
			<g>
				<path d="M828,304.7c-5.9,5.3-9.6,11.7-16.7,15.9c-10.8,6.3-19.2,0.1-25.8-8.1c-0.9-1.1-2.7-0.1-2.7,1.1
					c-0.1,11.9,12.5,17.9,22.9,17.2c12.5-0.8,24.3-12.5,25.8-24.8C831.6,304.2,829.1,303.6,828,304.7z"/>
			</g>
		</g>
		<g>
			<g>
				<path d="M1118.8,223.7c-0.7,0.5-1.5,1.1-2.2,1.6c0.1-0.2,0.3-0.3,0.4-0.5c0.8-1.3,0-2.9-1.4-3.4c-6.4-2-13.6,0.3-20.3-1.4
					c-8.9-2.2-14.1-8.5-20-14.8c-1.2-1.3-3.9-0.4-3.6,1.5c0.1,0.9,0.3,1.7,0.6,2.5c-5.5,2.5-6.6,9.9-5.7,15.6
					c1.2,8.6,5.6,14.8,12.9,19.3c14.4,9,38.7-2.1,41.8-18.5C1121.5,224.3,1120.2,222.8,1118.8,223.7z M1087.2,238.9
					c-6.9-1.1-11.6-6.8-13.6-13.1c-1.3-4.2,0.3-7.9,0.7-11.7c3.4,6,9.4,10.6,15.6,13.3c5.9,2.6,15.3,4.6,21.9,1.7
					C1104.6,234.9,1097.5,240.6,1087.2,238.9z"/>
			</g>
		</g>
		<g>
			<g>
				<path d="M1097.7,180.5c-0.4-1.4-1.8-2.7-3.3-2.5c-3.2,0.3-6.1,1.1-8.7,3.1c-2.4,1.8-5.2,4.7-4.9,8c0.2,1.7,1.9,3,3.5,2
					c1.6-0.9,2.7-2.5,4.1-3.7c0.9-0.8,2.2-1.5,3.5-1.9c1,3.3,2.4,7,5.3,7.9c0.8,0.3,1.5-0.2,1.9-0.8
					C1101.4,189.5,1098.7,183.7,1097.7,180.5z"/>
			</g>
		</g>
		<g>
			<g>
				<path d="M1139.7,185.4c-8.2-4.8-18.8-0.7-23.8,6.5c-2.4,3.4,2.9,7.3,5.7,4.4c4.1-4.4,9.9-6,15.4-3.1c4.9,2.5,4.5,8.3,8.1,11.5
					c0.7,0.6,1.7,0.6,2.4,0C1154,198.9,1144.8,188.4,1139.7,185.4z"/>
			</g>
		</g>
		<g>
			<g>
				<path d="M1028.4,628.7c-4.4-2.4-9.1-2.6-14-1.6c-2.3,0.5-4.5,1.7-6.4,3.1c-2.1,1.7-3.2,4-5.1,5.7c-2.3,2.1-0.5,6.2,2.5,6.1
					c3.6-0.1,5.2-2.9,8.1-4.7c2.8-1.7,5.6-2,8.6-1.3c0,0.1,0,0.2,0.1,0.3c0.9,3.9,6.7,3.8,7.8,0c0.4-1.3,0.5-2.5,0.6-3.8
					C1030.8,631.1,1029.7,629.4,1028.4,628.7z"/>
			</g>
		</g>
		<g>
			<g>
				<path d="M1068.4,625c-7.5-2-21,3.5-22,11.9c-0.5,3.8,4.9,4.5,6.6,1.8c2.2-3.4,9.2-5.7,13-5.1c4.8,0.7,6.2,5.4,9.1,8.4
					c0.8,0.8,2,0.7,2.8,0C1085,635.5,1074.4,626.6,1068.4,625z"/>
			</g>
		</g>
		<g>
			<g>
				<path d="M1067.2,663.9c-7.3,6.5-11.9,14.9-20.7,19.8c-7.5,4.2-16,1.4-23-2c-3.3-1.6-11.3-5.2-12.8-8.9c-0.5-1.1-2.5-1.6-2.7,0
					c-2.1,12.3,21.5,20.5,30.9,21.2c15.1,1.1,28.7-14.7,31.9-28C1071.3,663.8,1068.8,662.5,1067.2,663.9z"/>
			</g>
		</g>
		<g>
			<g>
				<path d="M732.3,619.8c-9.5,1.4-20.4,9.8-18.8,20.4c0.3,2.2,3.2,1.9,4.2,0.5c4.4-6,6.8-11.5,14.6-13.5c4.2-1.1,8.6,0.6,12.2,2.6
					c2.8,1.6,3.7,3.8,6.8,4.7c1.6,0.5,3.2-0.8,3.2-2.4C754.5,622.8,739.8,618.7,732.3,619.8z"/>
			</g>
		</g>
		<g>
			<g>
				<path d="M796.2,616.5c-6.5-0.7-14.1,4.3-15.4,10.7c-0.5,2.4,2.6,4.7,4.4,2.6c2.8-3.2,5.1-6.1,9.6-6.5c4.3-0.5,7.9,3,11.6,4.6
					c0.9,0.4,1.9-0.1,2-1.1C808.9,619.9,801.8,617.1,796.2,616.5z"/>
			</g>
		</g>
		<g>
			<g>
				<path d="M787.3,650.8c-0.7-1.1-2.2-0.8-2.6,0.3c-1.3,3.3-3.7,5.9-7.1,7.1c-3.5,1.3-6.8,0.1-10.3-0.2c-2-0.1-2.5,2.2-1.4,3.5
					c4,4.9,11.4,5.2,16.8,2.9C787.6,662.3,790.2,655.3,787.3,650.8z"/>
			</g>
		</g>
		<g>
			<g>
				<path d="M348.4,688.4c-0.5-0.9-2.1-1-2.6,0c-0.8,1.7-1.4,3-3.2,3.8c-2.2,0.9-3.7,0.8-5.5-0.7c-2.5-2.1-6.2-5-8.8-1.5
					c-0.5,0.7,0,1.8,0.8,2c2.5,0.6,3.8,3.8,5.7,5.5c2,1.8,4.8,2,7.4,1.6C346.5,698.4,350.7,692.5,348.4,688.4z"/>
			</g>
		</g>
		<g>
			<g>
				<path d="M378.8,683.6c-1.3-2.1-4.3-1.6-5.1,0.7c-0.6,1.7-1.1,3.6-1.8,5.3c-2.9,0.5-5.4-0.1-8.4-0.5c-1.5-0.2-2.8,1.1-2,2.6
					c2.4,4.2,8.4,5.7,13,5C379.9,695.7,381.2,687.6,378.8,683.6z"/>
			</g>
		</g>
		<g>
			<g>
				<path d="M382.7,724.5c-0.2-1.7-2-2.6-3.3-1.4c-3.7,3.3-6.5,6.8-11.3,8.6c-2.4,0.9-18.7,2.1-19.1-2.4c-0.1-1.4-2.2-1.8-2.5-0.3
					C343.3,740.8,384.8,745.4,382.7,724.5z"/>
			</g>
		</g>
	</g>
	<g>
		<g>
			<path class="st3" d="M380.2,446.2c-1.1-2.8-3.9-4.7-6.9-4.8c-0.1-5.3-5.8-10.2-11.4-6.8c-1.7,1-3.3,2.1-5,3.1
				c-1-4.4-5.6-7.5-11-4.9c-3.2,1.6-6.4,3.1-9.6,4.7c-0.1-4.7-4.2-9.2-9.5-7.4c-4.9,1.7-9.8,3.4-14.7,5.2c-0.3-4.5-4.7-8.7-9.6-7.1
				c-8.5,2.7-17,5.8-25.3,9.1c-1-4.1-4.9-7.6-9.3-5.8c-9.1,3.7-18.3,7.4-27.4,11.1c-0.6-3-2.9-5.5-6.8-5c-6,0.8-11.9,1.9-17.6,3.3
				c-1.4-3.2-5.3-5.3-9.6-3.5c-4.4,1.9-8.9,3.7-13.4,5.6c-0.3-3.8-3.9-6.7-7.8-4.5c-1.9,1.1-3.8,2.2-5.7,3.3c-1.8,1-2.2,3.5-1.4,5.2
				c-1.6,1.9-3.2,3.7-5.3,5.3c-3.9,3-1.6,9,2.3,10.7c0.9,4.1,5.3,7.4,10.2,4.7c2.5-1.3,4.9-2.6,7.5-3.7c-2.3,5.3,1.8,13.1,8.4,10.5
				c5.3-2.1,10.5-4.2,15.7-6.3c-1.1,0.7-2.3,1.4-3.4,2.2c-8.2,5.3-0.8,18.3,7.7,13.2c2.9-1.8,5.7-3.6,8.6-5.4
				c3.9-2.4,7.9-4.7,11.9-7c0.5,4.8,5.8,9.3,11.5,6.4c7.4-3.7,14.8-7.3,22.3-10.7c-1.3,0.6-2.5,1.2-3.8,1.8
				c-9,4.3-1.1,17.4,7.8,13.3c1.6-0.8,3.3-1.6,4.9-2.4c9.2-4.4,18.3-8.9,27.5-13.3c1.2,4.4,4.2,7,9.1,7.7c5,0.7,9.2-1.8,13.3-4.4
				c2.4-1.5,4.9-3,7.3-4.5c1.3,1.6,3.2,2.6,5.6,2.4c6.8-0.5,13.2-2.2,19.1-5c1.8,1.9,4.5,2.9,7.1,1.9c2.8-1.1,5.6-2.1,8.3-3.2
				C389.9,458.1,387.5,445.9,380.2,446.2z"/>
		</g>
	</g>
	<g>
		<g>
			<path class="st3" d="M806.5,443.1c-5-2.7-10.4,0.1-15.2,2c-0.1,0-0.2,0.1-0.3,0.1c-1.2-4.5-6.7-7.7-11.5-5
				c-2.2,1.3-4.4,2.6-6.7,3.9c-1.7-3.9-6.6-6.4-10.9-3.8c-0.1,0.1-0.3,0.2-0.4,0.3c-0.7-4.7-5.8-8.6-11.1-5.7
				c-5.2,2.9-10.5,5.7-15.7,8.5c-0.2-4.8-5-8.6-10.7-6c-6.8,3.2-13.7,6.4-20.7,9.4c-0.7-3.2-3.5-6.1-6.9-6
				c-9.6,0.3-19.1,1.7-28.2,4.2c0.9-4.6-2.9-10.1-8.1-8c-4.7,1.9-9.4,3.8-14.2,5.8c-1.8-2.2-5-3.4-7.9-1.9c-1.3,0.7-2.7,1.4-4,2.2
				c0.6-4.1-4.8-7-8.3-4c-4.7,4.1-9.4,8.1-13.8,12.5c-2.1,2.1-0.5,5.2,1.9,5.5c-0.2,3.9,5,6.9,8.8,5.1c0.1,0,0.2-0.1,0.3-0.2
				c1.5,1.5,3.6,2.2,5.8,1.4c2.4-0.9,4.7-1.8,7.1-2.8c-2.8,5.4,3.5,12.5,9.4,8.9c8.4-5,17.3-8.8,26.6-11.3c-1.6,1.2-3.1,2.5-4.7,3.7
				c-5.6,4.4,0.4,14.3,6.9,11.9c4.1-1.5,8.3-3.1,12.4-4.7c-1.7,5.4,4,11.6,10.7,8.7c5.7-2.5,11.3-5.1,16.9-7.7
				c0.5,4.6,5.5,8.6,11.3,6.1c4.9-2.1,9.8-4.4,14.7-6.7c1.4,4.3,6.7,7.8,11.5,5c5.9-3.4,11.8-6.9,17.6-10.3c1.8,2.6,4.9,4.3,8.3,3
				c4.2-1.7,8.4-3.3,12.6-5c2-0.8,4.6-2.2,7.1-3.3c0.3,0.2,0.6,0.5,0.9,0.7C808.5,466.2,817.2,449,806.5,443.1z"/>
		</g>
	</g>
	<g>
		<g>
			<path class="st3" d="M1221.4,458.1c-8.3,0.4-16.5,1.5-24.6,3.3c5.1-6.4-3.4-15-10.8-11.5c-5.1,2.4-10.2,4.9-15.3,7.4
				c-2.2-1.9-5.5-2.8-9.1-1.3c-2.1,0.9-4.2,1.8-6.4,2.7c0-1.4-0.3-2.7-1-3.9c-2.3-4-6.8-4.5-10.7-2.8c-8.1,3.5-16.2,7-24.3,10.5
				c-1.6-3.1-5.3-5.4-8.9-4.6c-9.5,2.1-18.8,4.8-27.8,8.1c-1.4-2.4-4.1-3.8-7.3-2.7c-7.2,2.5-14.4,5.2-21.6,7.9
				c-0.9-1.3-2.4-2.1-4.1-1.9c-6.1,0.6-12.1,0.4-18.2,1.2c-4.3,0.6-5.2,5.9-1,7.5c1.5,0.6,3,1,4.5,1.4c-0.3,0.4-0.5,0.7-0.8,1.1
				c-2.8,4.4,1.8,10.9,7,9.1c6.8-2.4,13.6-4.8,20.4-7.1c1.2,3.3,4.3,5.8,8.2,4.1c3.5-1.5,7.1-2.9,10.7-4.2c-0.4,2-0.1,4.2,0.8,5.8
				c2.3,3.9,6.6,4.3,10.4,2.7c4.8-2,9.7-4.1,14.5-6.1c0.5,4.6,4.4,8.9,9.6,6.9c4.4-1.7,8.7-3.4,13.1-5.1c1.9,3.4,6.1,5.6,10.9,3.3
				c5.5-2.6,10.9-5.2,16.4-7.9c0.2,0.8,0.5,1.6,0.9,2.4c2.4,4.1,6.9,4.6,10.9,2.9c14.9-6.4,30.3-10.1,46.2-12.4
				c1.4,0.7,3.1,0.9,5,0.2c1.5-0.5,2.9-1,4.4-1.5C1231.7,471,1230.7,457.7,1221.4,458.1z"/>
		</g>
	</g>
	<g>
		<g>
			<path class="st3" d="M1215.5,891.3c0-0.1,0-0.2,0-0.3c0-5.2-4.1-7.9-8.3-7.7c0.4-6.3-6.9-11.5-13.1-6.6c-2.4-4.1-8.5-6.2-12.8-2
				c-0.6,0.6-1.3,1.2-1.9,1.8c-0.6-5.9-7.5-10.3-13.2-5c-7.4,6.9-14.8,13.7-22.2,20.6c3.1-3.8,6.4-7.5,9.7-11.1
				c7-7.6-3.4-17.6-11.2-11.2c-4.4,3.6-8.8,7.3-13.2,10.9c1.5-6-5.7-12.9-11.5-8.7c-1.2,0.9-2.5,1.8-3.7,2.7
				c-0.5-4.6-7.1-7.9-11.6-5.7c-6.2,2.9-12.3,6.1-18.1,9.7c-0.2-0.5-0.4-1-0.7-1.5c-1.8-3-6.5-4.8-9.6-2.5
				c-5,3.7-10.2,7.2-15.4,10.6c-1.7-2.7-5.9-4.2-8.8-2.2c-2.9,2.1-6,4-9.1,5.9c0.2-3.9-4.9-7.9-8.4-5.2c-4.8,3.7-9.2,7.2-14.7,9.9
				c-2.9,1.4-1.9,4.9,0.3,6.1c-0.3,0.3-0.5,0.6-0.8,0.9c-3.7,4.3-0.3,12.2,5.9,10.1c4.1-1.4,8.1-2.9,12-4.7c1,2.8,3.7,4.9,7.1,4.3
				c0,1.3,0.3,2.6,0.9,3.7c5.6,9.3,14,4.5,21-1.5c0.9,2.4,2.8,4.5,5.2,5.2c4.3,1.2,8.4,0.4,12.1-1.3c0,2.1,0.8,4.2,2.3,5.6
				c8.5,7.7,17.7,2,25.5-4.4c1,2.2,3,4.1,5.3,4.9c8.3,3,16.3,0.2,23.2-4.5c7.3,8.8,17.7,3,24.8-3.6c5.6,3,12.9-0.3,18-4.7
				c1.8,1.2,4,1.6,6.3,0.9c5.3-1.7,10.2-3.9,14.8-6.6c1.5,1.5,3.5,2.5,5.7,2.5c2,0,4,0,6,0C1223,906.9,1223.7,893.2,1215.5,891.3z"
				/>
		</g>
	</g>
	<g>
		<g>
			<path class="st3" d="M785,898.8c-0.1-5.6-6.6-9.9-11.6-6.6c-1.6,1-3.2,2-5,2.6c-0.5,0.1-1,0.3-1.5,0.4c0,0,0,0,0,0
				c-1.6-2.1-3.8-3.1-6-3.1c0.4-0.5,0.8-1.1,1.2-1.6c5.5-7.5-5.8-14.5-12-9.3c-1.2,1-2.3,2-3.5,3c0.1-0.1,0.2-0.2,0.2-0.3
				c4-5.7-2.6-12.7-8.6-11.1c-4,1-7.6,2.6-11.1,4.6c0.5-1.8,0.4-3.7-0.7-5.5c-1.8-3.2-6.9-5.1-10.1-2.6
				c-8.9,6.8-17.8,13.5-26.7,20.3l3-3.3c5.4-5.9-1.5-15.4-8.6-11.2c-8.7,5.1-17.4,10.2-26.1,15.3c0.2-0.2,0.4-0.5,0.6-0.7
				c4.8-5.4-1.3-14.4-7.9-10.3c-5.8,3.6-11.6,7.2-17.4,10.8c-0.9-3.6-4.5-6.4-8.1-3.6c-0.4,0.3-0.8,0.6-1.2,0.9l0,0c0,0,0,0,0,0
				c-7.8,6-15.5,12-23.1,18.2c-4,3.2,0.4,9.5,4.7,8.3c1.4,3,4.8,4.8,8.5,2.7c1.8-1,3.5-2.1,5.3-3.2c-4.9,5.7,1.6,14.6,8.4,10.6
				c7.7-4.4,15.3-8.8,22.9-13.2c-0.8,0.8-1.5,1.7-2.3,2.5c-1.7,1.8-2.7,4.6-1.9,7c5.9,17,24,2.1,33-4.9c-1.2,5.2,2.5,11.3,8.8,9.2
				c2.8-0.9,5.4-2,7.9-3.4c-0.9,2.2-0.9,4.7,0.4,6.9c7.9,13.7,22.6-0.8,29.7-6.8c0.1,0,0.1-0.1,0.2-0.1c2.3,3,6.9,4.5,10.5,2.7
				c8.4-4.2,16.3-9.2,23.8-14.7c3.4,1.4,7.2,1.4,11,0.4c4.1,4.6,13.6,3.1,13.4-4.8C785.1,902.9,785,900.9,785,898.8z M658.3,913.1
				c-0.2,0.1-0.4,0.2-0.6,0.4C656,914.4,656.8,911.9,658.3,913.1z"/>
		</g>
	</g>
	<g>
		<g>
			<path class="st3" d="M349.6,863.2c-3.6-3.6-6.9-2.7-10.2-0.9c-2.5-3.9-7.9-5.9-12.1-1.5c-1.9,2-4,3.9-6.3,5.6
				c0.4-0.6,0.7-1.1,1.1-1.7c3.8-5.9-1.8-12.1-7.5-11.9c-1.3-4.7-7.1-8.4-11.8-5.1c-3.2,2.2-6.5,4.5-9.7,6.7
				c0.7-6-5.1-12.6-11.3-8.1c-5.1,3.7-10.3,7.3-15.6,10.7c1.4-2.3,2.9-4.6,4.3-6.9c3.9-6.3-4.2-15.3-10.6-10.6
				c-7.4,5.5-14.7,10.9-22.1,16.4c-0.6,0.5-1.3,0.9-1.9,1.4l3.7-5.6c3.9-6-4-14.4-10.1-10.1c-6,4.2-12,8.4-18,12.7
				c0.5-0.8,1.1-1.5,1.7-2.3c4-5.4-3.7-12.7-9.1-9.1c-5.6,3.7-11.1,7.5-16.5,11.5c-1.3-1.2-3.1-1.8-5.1-1.7
				c-1.2-2.9-4.5-4.8-7.9-2.6c-1.4,0.9-2.6,1.9-3.8,2.9c-4.1,3.1-8.1,6.2-12.1,9.3c-3.4,2.5-2.4,7.2,0.3,8.9
				c-0.2,4.9,6.8,7.7,10.5,4.1c0.2-0.2,0.4-0.4,0.6-0.6c2,2.9,7.1,3.6,10.3,1.2c0.9-0.7,1.9-1.4,2.9-2.2c-0.5,0.8-0.9,1.6-1.4,2.5
				c-3.2,5.8,3.5,13.7,9.6,9.6c5.9-4,11.7-8,17.5-12c-0.3,1.9-0.3,3.8,0.4,5.8c1.5,4.8,6.4,7.5,11.2,6.7c4.1-0.7,7.7-4.4,10.9-6.8
				c1.4-1,2.7-2,4.1-3c-3.9,6.8,4.4,13.8,10.9,10.3c0.5-0.3,1-0.6,1.5-0.8c-5,6.5,2,17.5,9.8,12.1c4.1-2.8,8.1-5.6,12.2-8.4
				c1.7,4.1,7,7,11.8,4.7c4.5-2.1,8.8-4.5,13-7.1c1.4,2.2,3.7,3.7,6.5,3.3c8.8-1.1,17.1-3.8,24.6-8.1c1.2,0.6,2.4,1,3.7,0.8
				c4-0.4,7.7-1.4,11.2-3c0.9,0,1.8-0.1,2.9-0.4C350.1,877.8,355.6,869.2,349.6,863.2z"/>
		</g>
	</g>
</g>
<g id="Designed_by_Vecteezy">
	<g>
		<g>
			<g>
				<path class="st4" d="M732.3,937.7c0.8,0,1.6,0.7,1.6,0.7L720,968.2c-1.5,0-5.2,0.2-6.1,0.2c-0.8,0-1.6-0.7-1.6-0.7l-4.8-29.8
					c2.9,0,6.5-0.2,7.6-0.2c0.8,0,1.6,0.7,1.6,0.7l1.5,14.6c0.1,1.3,0.1,3,0.1,4.8c0.5-2,1-3.9,1.5-5.2l5.8-14.7
					C728.1,937.9,731.3,937.7,732.3,937.7L732.3,937.7z"/>
			</g>
			<g>
				<path class="st4" d="M746.6,952.4c0,3.2-1.8,5.4-6.3,6.3l-4.7,1c0.4,2,1.6,3,3.8,3c2.6,0,4.4-2,4.4-2s1.3,0.7,1.3,2.3
					c0,2.7-4.1,5.6-9,5.6c-4.9,0-8.1-3.1-8.1-8.3c0-6,4.3-14.2,11.9-14.2C744,946.1,746.6,948.6,746.6,952.4L746.6,952.4z
					 M738.6,955.5c1-0.3,1.3-1.2,1.3-2.1c0-0.9-0.3-2.2-1.3-2.2c-1.9,0-2.7,3-3,5.3L738.6,955.5z"/>
			</g>
			<g>
				<path class="st4" d="M759.4,946.1c3.8,0,6.7,2,6.7,4.7c0,3.3-4,4.5-4,4.5s-1.2-3.6-3.9-3.6c-1.8,0-2.9,1.8-2.9,5.8
					c0,3.6,1,5.2,3.3,5.2c2.4,0,3.9-1.6,3.9-1.6s1.3,0.7,1.3,2.2c0,2.6-4,5.3-8.6,5.3c-4.9,0-8-3.1-8-8.2
					C747.3,954.3,751.7,946.1,759.4,946.1L759.4,946.1z"/>
			</g>
			<g>
				<path class="st4" d="M777.8,941.3c0.9,0,1.5,0.7,1.5,0.7l-0.7,4.5h4.8l-1.1,3.5c-0.4,1.1-0.9,1.7-2,1.7h-2.5l-1.4,8.9
					c-0.2,1.4,0.1,2.1,1.1,2.1c0.9,0,1.8-0.5,1.8-0.5s1.3,0.7,1.3,2.2c0,2.2-3.1,4.3-7,4.3c-4.1,0-5.8-2.5-5.1-7l1.6-9.9h-2.6
					l1.1-3.6c0.3-0.9,1.1-1.6,2-1.6h1.3l1.5-4.2C775.2,941.9,777,941.3,777.8,941.3L777.8,941.3z"/>
			</g>
			<g>
				<path class="st4" d="M801.2,952.4c0,3.2-1.8,5.4-6.3,6.3l-4.7,1c0.4,2,1.6,3,3.8,3c2.6,0,4.4-2,4.4-2s1.3,0.7,1.3,2.3
					c0,2.7-4.1,5.6-9,5.6c-4.9,0-8.1-3.1-8.1-8.3c0-6,4.3-14.2,11.9-14.2C798.6,946.1,801.2,948.6,801.2,952.4L801.2,952.4z
					 M793.2,955.5c1-0.3,1.3-1.2,1.3-2.1c0-0.9-0.3-2.2-1.3-2.2c-1.9,0-2.7,3-3,5.3L793.2,955.5z"/>
			</g>
			<g>
				<path class="st4" d="M820.5,952.4c0,3.2-1.8,5.4-6.3,6.3l-4.7,1c0.4,2,1.6,3,3.8,3c2.6,0,4.4-2,4.4-2s1.3,0.7,1.3,2.3
					c0,2.7-4.1,5.6-9,5.6c-4.9,0-8.1-3.1-8.1-8.3c0-6,4.3-14.2,11.9-14.2C817.9,946.1,820.5,948.6,820.5,952.4L820.5,952.4z
					 M812.5,955.5c1-0.3,1.3-1.2,1.3-2.1c0-0.9-0.3-2.2-1.3-2.2c-1.9,0-2.7,3-3,5.3L812.5,955.5z"/>
			</g>
			<g>
				<path class="st4" d="M836.3,960.5c0,0,1.6,1.5,1.6,4c0,3.3-2.8,4.2-5.2,4.2c-3.1,0-5.3-1.5-7.6-2.3c-0.6,0.7-1.3,1.5-1.9,2.3
					c0,0-3.5-0.1-3.5-2.4c0-2.9,4.8-7.8,9.9-13.4c-0.6-0.1-1.2-0.2-1.7-0.2c-2.9,0-4.1,1.5-4.1,1.5s-1.5-1.7-1.4-4
					c0.2-3.1,3.1-4,5.5-4c2.5,0,4.3,1,6.1,1.7l1.5-1.7c0,0,3.5,0.1,3.5,2.5c0,2.8-4.6,7.6-9.6,13c1.1,0.3,2,0.5,3,0.5
					C835.1,962.2,836.3,960.5,836.3,960.5L836.3,960.5z"/>
			</g>
			<g>
				<path class="st4" d="M858.7,966.7c-1.2,7.6-6.4,11.4-13,11.4c-4.2,0-7.3-2.2-7.3-4.8c0-1.7,1.4-2.5,1.4-2.5s1.4,1.3,4.2,1.3
					c2.6,0,6.2-1.1,6.8-5.1l0.5-3.1c-1.8,2.6-4.1,4.6-7.1,4.6c-3.3,0-4.8-2.7-3.9-8.3l0.9-6c0.6-3.7,0.7-6.7,0.7-6.7
					c2.4-0.4,5.5-1.5,6.6-1.5c0.8,0,1.6,0.7,1.6,0.7l-1.2,7.5l-1.1,6.9c-0.1,0.6,0,1,0.6,1c2.8,0,4.3-7.9,4.3-7.9
					c0.6-3.7,0.7-6.7,0.7-6.7c2.4-0.4,5.5-1.5,6.6-1.5c0.9,0,1.6,0.7,1.6,0.7l-1.2,7.5L858.7,966.7z"/>
			</g>
		</g>
		<g>
			<path class="st4" d="M538.1,947.4h7.4c1.7,0,3,0.1,3.8,0.4c1.2,0.3,2.2,1,3,1.9c0.8,0.9,1.5,2,1.9,3.3c0.4,1.3,0.7,2.9,0.7,4.8
				c0,1.7-0.2,3.1-0.6,4.3c-0.5,1.5-1.2,2.7-2.2,3.6c-0.7,0.7-1.7,1.2-2.9,1.6c-0.9,0.3-2.1,0.4-3.6,0.4h-7.7V947.4z M542.2,950.8
				v13.4h3c1.1,0,2-0.1,2.5-0.2c0.7-0.2,1.2-0.4,1.6-0.8c0.4-0.4,0.8-1,1.1-1.9c0.3-0.9,0.4-2.1,0.4-3.7c0-1.6-0.1-2.8-0.4-3.6
				c-0.3-0.8-0.7-1.5-1.2-2c-0.5-0.5-1.1-0.8-1.9-0.9c-0.6-0.1-1.7-0.2-3.3-0.2H542.2z"/>
			<path class="st4" d="M566.4,962.9l3.9,0.6c-0.5,1.4-1.3,2.5-2.3,3.2c-1.1,0.7-2.4,1.1-4,1.1c-2.5,0-4.4-0.8-5.6-2.5
				c-1-1.3-1.4-3-1.4-5c0-2.4,0.6-4.3,1.9-5.7c1.3-1.4,2.9-2.1,4.8-2.1c2.2,0,3.9,0.7,5.1,2.2c1.3,1.4,1.9,3.6,1.8,6.6h-9.7
				c0,1.1,0.3,2,0.9,2.7c0.6,0.6,1.3,1,2.2,1c0.6,0,1.1-0.2,1.5-0.5C565.8,964.1,566.2,963.6,566.4,962.9z M566.6,959
				c0-1.1-0.3-2-0.9-2.6c-0.6-0.6-1.2-0.9-2-0.9c-0.8,0-1.5,0.3-2.1,0.9c-0.6,0.6-0.8,1.4-0.8,2.5H566.6z"/>
			<path class="st4" d="M571.6,963.4l3.9-0.6c0.2,0.8,0.5,1.3,1,1.7c0.5,0.4,1.2,0.6,2.1,0.6c1,0,1.8-0.2,2.3-0.6
				c0.3-0.3,0.5-0.6,0.5-1c0-0.3-0.1-0.5-0.3-0.7c-0.2-0.2-0.6-0.4-1.3-0.5c-3.1-0.7-5.1-1.3-5.9-1.9c-1.2-0.8-1.7-1.9-1.7-3.3
				c0-1.3,0.5-2.3,1.5-3.2c1-0.9,2.6-1.3,4.7-1.3c2,0,3.5,0.3,4.5,1c1,0.7,1.6,1.6,2,2.9l-3.6,0.7c-0.2-0.6-0.5-1-0.9-1.3
				c-0.4-0.3-1.1-0.5-1.9-0.5c-1,0-1.7,0.1-2.2,0.4c-0.3,0.2-0.4,0.5-0.4,0.8c0,0.3,0.1,0.5,0.4,0.7c0.3,0.3,1.6,0.6,3.6,1.1
				c2.1,0.5,3.5,1,4.3,1.7c0.8,0.7,1.2,1.6,1.2,2.9c0,1.3-0.6,2.5-1.7,3.5c-1.1,1-2.8,1.4-5,1.4c-2,0-3.6-0.4-4.7-1.2
				C572.8,965.8,572,964.7,571.6,963.4z"/>
			<path class="st4" d="M588.1,950.9v-3.6h3.9v3.6H588.1z M588.1,967.5v-14.6h3.9v14.6H588.1z"/>
			<path class="st4" d="M595,968.5l4.4,0.5c0.1,0.5,0.2,0.9,0.5,1.1c0.4,0.3,0.9,0.4,1.7,0.4c1,0,1.8-0.2,2.3-0.5
				c0.3-0.2,0.6-0.5,0.8-1c0.1-0.3,0.2-0.9,0.2-1.8v-2.1c-1.2,1.6-2.6,2.4-4.4,2.4c-2,0-3.5-0.8-4.7-2.5c-0.9-1.3-1.3-2.9-1.3-4.9
				c0-2.4,0.6-4.3,1.8-5.6c1.2-1.3,2.6-1.9,4.4-1.9c1.8,0,3.3,0.8,4.5,2.4v-2.1h3.6V966c0,1.7-0.1,3-0.4,3.9c-0.3,0.9-0.7,1.5-1.2,2
				c-0.5,0.5-1.2,0.9-2.1,1.1c-0.9,0.3-1.9,0.4-3.3,0.4c-2.5,0-4.2-0.4-5.3-1.3s-1.6-1.9-1.6-3.2C595,968.8,595,968.7,595,968.5z
				 M598.5,959.9c0,1.6,0.3,2.7,0.9,3.4c0.6,0.7,1.3,1.1,2.2,1.1c0.9,0,1.7-0.4,2.4-1.1c0.7-0.7,1-1.8,1-3.3c0-1.5-0.3-2.6-0.9-3.4
				c-0.6-0.7-1.4-1.1-2.4-1.1c-0.9,0-1.7,0.4-2.3,1.1C598.8,957.3,598.5,958.4,598.5,959.9z"/>
			<path class="st4" d="M625.3,967.5h-3.9v-7.5c0-1.6-0.1-2.6-0.2-3.1c-0.2-0.5-0.4-0.8-0.8-1.1c-0.4-0.3-0.8-0.4-1.3-0.4
				c-0.7,0-1.3,0.2-1.8,0.6c-0.5,0.4-0.9,0.9-1.1,1.5c-0.2,0.6-0.3,1.7-0.3,3.4v6.6H612v-14.6h3.6v2.1c1.3-1.7,2.9-2.5,4.8-2.5
				c0.9,0,1.6,0.2,2.3,0.5c0.7,0.3,1.2,0.7,1.6,1.2c0.4,0.5,0.6,1,0.8,1.6c0.1,0.6,0.2,1.5,0.2,2.6V967.5z"/>
			<path class="st4" d="M637.2,962.9l3.9,0.6c-0.5,1.4-1.3,2.5-2.3,3.2c-1.1,0.7-2.4,1.1-4,1.1c-2.5,0-4.4-0.8-5.6-2.5
				c-1-1.3-1.4-3-1.4-5c0-2.4,0.6-4.3,1.9-5.7c1.3-1.4,2.9-2.1,4.8-2.1c2.2,0,3.9,0.7,5.1,2.2c1.3,1.4,1.9,3.6,1.8,6.6h-9.7
				c0,1.1,0.3,2,0.9,2.7c0.6,0.6,1.3,1,2.2,1c0.6,0,1.1-0.2,1.5-0.5C636.6,964.1,636.9,963.6,637.2,962.9z M637.4,959
				c0-1.1-0.3-2-0.9-2.6c-0.6-0.6-1.2-0.9-2-0.9c-0.8,0-1.5,0.3-2.1,0.9c-0.6,0.6-0.8,1.4-0.8,2.5H637.4z"/>
			<path class="st4" d="M657.2,967.5h-3.6v-2.1c-0.6,0.8-1.3,1.5-2.1,1.9c-0.8,0.4-1.6,0.6-2.5,0.6c-1.7,0-3.1-0.7-4.3-2
				c-1.2-1.4-1.8-3.2-1.8-5.7c0-2.5,0.6-4.4,1.7-5.7c1.2-1.3,2.6-1.9,4.4-1.9c1.6,0,3,0.7,4.2,2v-7.3h3.9V967.5z M646.9,959.9
				c0,1.6,0.2,2.7,0.6,3.4c0.6,1,1.5,1.5,2.6,1.5c0.9,0,1.6-0.4,2.3-1.1c0.6-0.8,0.9-1.9,0.9-3.4c0-1.7-0.3-2.9-0.9-3.6
				c-0.6-0.7-1.4-1.1-2.3-1.1c-0.9,0-1.7,0.4-2.3,1.1C647.2,957.4,646.9,958.5,646.9,959.9z"/>
			<path class="st4" d="M667.6,967.5v-20.2h3.9v7.3c1.2-1.4,2.6-2,4.2-2c1.8,0,3.3,0.6,4.4,1.9c1.2,1.3,1.7,3.1,1.7,5.6
				c0,2.5-0.6,4.4-1.8,5.8c-1.2,1.3-2.6,2-4.3,2c-0.8,0-1.7-0.2-2.5-0.6c-0.8-0.4-1.5-1-2.1-1.9v2.1H667.6z M671.4,959.9
				c0,1.5,0.2,2.6,0.7,3.4c0.7,1,1.6,1.5,2.7,1.5c0.9,0,1.6-0.4,2.2-1.1c0.6-0.7,0.9-1.9,0.9-3.4c0-1.7-0.3-2.9-0.9-3.6
				c-0.6-0.7-1.4-1.1-2.3-1.1c-0.9,0-1.7,0.4-2.3,1.1C671.7,957.3,671.4,958.4,671.4,959.9z"/>
			<path class="st4" d="M682.6,952.9h4.1l3.5,10.4l3.4-10.4h4l-5.2,14.1l-0.9,2.5c-0.3,0.9-0.7,1.5-1,2c-0.3,0.4-0.7,0.8-1.1,1.1
				c-0.4,0.3-0.9,0.5-1.5,0.7c-0.6,0.2-1.2,0.2-2,0.2c-0.7,0-1.5-0.1-2.2-0.2l-0.3-3c0.6,0.1,1.2,0.2,1.6,0.2c0.9,0,1.6-0.3,2-0.8
				c0.4-0.5,0.8-1.2,1-2L682.6,952.9z"/>
		</g>
	</g>
</g>
</svg>
